<svg width="32" height="32" viewBox="0 0 32 32" fill="none" xmlns="http://www.w3.org/2000/svg">
<path d="M16 27.5L15.1166 29.2943L16 29.7292L16.8834 29.2943L16 27.5ZM16 27.5C16.8834 29.2943 16.8839 29.2941 16.8845 29.2938L16.8858 29.2931L16.8892 29.2915L16.8987 29.2867L16.9284 29.2718C16.9529 29.2595 16.9868 29.2423 17.0293 29.2204C17.1143 29.1765 17.2341 29.1136 17.3839 29.0323C17.6831 28.8699 18.1033 28.6332 18.6043 28.3274C19.6021 27.7185 20.942 26.8229 22.2919 25.6806C24.8875 23.4843 28 19.97 28 15.5V7.15318C28 5.62211 27.0993 4.09778 25.477 3.53436C23.719 2.92379 20.3452 2 16 2C11.6548 2 8.28095 2.92379 6.52295 3.53436C4.90072 4.09778 4 5.62211 4 7.15318V15.5C4 19.97 7.11245 23.4843 9.70812 25.6806C11.058 26.8229 12.3979 27.7185 13.3957 28.3274C13.8967 28.6332 14.3169 28.8699 14.6161 29.0323C14.7659 29.1136 14.8857 29.1765 14.9707 29.2204C15.0132 29.2423 15.0471 29.2595 15.0716 29.2718L15.1013 29.2867L15.1108 29.2915L15.1142 29.2931L15.1155 29.2938C15.1161 29.2941 15.1166 29.2943 16 27.5Z" stroke="url(#paint0_radial)" stroke-width="4"/>
<defs>
<radialGradient id="paint0_radial" cx="0" cy="0" r="1" gradientUnits="userSpaceOnUse" gradientTransform="translate(19.5 24.5) rotate(-111.801) scale(32.311 31.6521)">
<stop stop-color="#E374FF"/>
<stop offset="1" stop-color="#7457E7"/>
</radialGradient>
</defs>
</svg>
