<svg width="32" height="32" viewBox="0 0 32 32" fill="none" xmlns="http://www.w3.org/2000/svg">
<path fill-rule="evenodd" clip-rule="evenodd" d="M13.9999 30C13.9999 31.1046 14.8954 32 15.9999 32C17.1045 32 17.9999 31.1046 17.9999 30V2C17.9999 0.89543 17.1045 0 15.9999 0C14.8954 0 13.9999 0.895431 13.9999 2L13.9999 30ZM7.41476 11.4142C6.63372 10.6332 6.63372 9.36684 7.41477 8.58579L8.08634 7.91421C8.86739 7.13316 8.86739 5.86684 8.08634 5.08579L7.91477 4.91421C7.13372 4.13317 5.86739 4.13316 5.08634 4.91421L1.41477 8.58579C0.633718 9.36683 0.633717 10.6332 1.41477 11.4142L5.08634 15.0858C5.86739 15.8668 7.13372 15.8668 7.91477 15.0858L8.08634 14.9142C8.86739 14.1332 8.86739 12.8668 8.08634 12.0858L7.41476 11.4142ZM24.5866 23.4142C25.3677 22.6332 25.3677 21.3668 24.5866 20.5858L23.9151 19.9142C23.134 19.1332 23.134 17.8668 23.9151 17.0858L24.0866 16.9142C24.8677 16.1332 26.134 16.1332 26.9151 16.9142L30.5866 20.5858C31.3677 21.3668 31.3677 22.6332 30.5866 23.4142L26.9151 27.0858C26.134 27.8668 24.8677 27.8668 24.0866 27.0858L23.9151 26.9142C23.134 26.1332 23.134 24.8668 23.9151 24.0858L24.5866 23.4142Z" fill="url(#paint0_radial)"/>
<defs>
<radialGradient id="paint0_radial" cx="0" cy="0" r="1" gradientUnits="userSpaceOnUse" gradientTransform="translate(31.0009 32) rotate(-133.647) scale(44.9138 46.519)">
<stop stop-color="#E374FF"/>
<stop offset="1" stop-color="#7457E7"/>
</radialGradient>
</defs>
</svg>
