<svg width="32" height="32" viewBox="0 0 32 32" fill="none" xmlns="http://www.w3.org/2000/svg">
<path d="M16 27L14.9846 28.7231L16 29.3214L17.0154 28.7231L16 27ZM16 27C17.0154 28.7231 17.0159 28.7228 17.0164 28.7225L17.0177 28.7217L17.0212 28.7196L17.0314 28.7136L17.0646 28.6938C17.0923 28.6771 17.1311 28.6536 17.1804 28.6234C17.2788 28.563 17.4189 28.4759 17.5946 28.3633C17.9459 28.1382 18.4409 27.8107 19.0321 27.3913C20.2108 26.5553 21.7898 25.3413 23.377 23.8344C26.4498 20.9171 30 16.4827 30 11.2857C30 6.67582 26.2051 3 21.6 3C19.4532 3 17.4886 3.79592 16 5.10995C14.5114 3.79592 12.5468 3 10.4 3C5.79493 3 2 6.67582 2 11.2857C2 16.4827 5.55023 20.9171 8.62295 23.8344C10.2102 25.3413 11.7892 26.5553 12.9679 27.3913C13.5591 27.8107 14.0541 28.1382 14.4054 28.3633C14.5811 28.4759 14.7212 28.563 14.8196 28.6234C14.8689 28.6536 14.9077 28.6771 14.9354 28.6938L14.9686 28.7136L14.9788 28.7196L14.9823 28.7217L14.9836 28.7225C14.9841 28.7228 14.9846 28.7231 16 27Z" stroke="url(#paint0_radial)" stroke-width="4"/>
<defs>
<radialGradient id="paint0_radial" cx="0" cy="0" r="1" gradientUnits="userSpaceOnUse" gradientTransform="translate(20.2 24.1915) rotate(-117.145) scale(31.5616 36.4024)">
<stop stop-color="#E374FF"/>
<stop offset="1" stop-color="#7457E7"/>
</radialGradient>
</defs>
</svg>
