<svg width="32" height="32" viewBox="0 0 32 32" fill="none" xmlns="http://www.w3.org/2000/svg">
<path fill-rule="evenodd" clip-rule="evenodd" d="M16 1C7.71573 1 1 7.71573 1 16C1 24.2843 7.71573 31 16 31C24.2843 31 31 24.2843 31 16C31 15.5077 30.9762 15.0204 30.9296 14.5393L30.8627 13.8477C30.8225 13.432 30.528 13.085 30.1243 12.9777L29.4528 12.7991C27.8849 12.3823 26.5635 11.3418 25.7768 9.95558L25.5276 9.51637C25.3709 9.24018 25.0923 9.05485 24.777 9.01704L24.2756 8.95691C21.3136 8.6017 19.0142 6.08352 19.0001 3.02862L18.9958 2.10612C18.9934 1.58505 18.5912 1.15317 18.0717 1.11364L17.1518 1.04366C16.7713 1.01471 16.3872 1 16 1ZM5 16C5 10.1919 9.50138 5.43523 15.2058 5.02823C15.9981 8.87533 18.9997 11.9141 22.8267 12.7628C23.8734 14.245 25.3139 15.4307 26.9988 16.1669C26.9096 22.1651 22.0194 27 16 27C9.92487 27 5 22.0751 5 16ZM24 4C24 4.55228 23.5523 5 23 5C22.4477 5 22 4.55228 22 4C22 3.44772 22.4477 3 23 3C23.5523 3 24 3.44772 24 4ZM10 12C10 12.5523 9.55229 13 9 13C8.44771 13 8 12.5523 8 12C8 11.4477 8.44771 11 9 11C9.55229 11 10 11.4477 10 12ZM15 18C15.5523 18 16 17.5523 16 17C16 16.4477 15.5523 16 15 16C14.4477 16 14 16.4477 14 17C14 17.5523 14.4477 18 15 18ZM18 23C18 24.1046 17.1046 25 16 25C14.8954 25 14 24.1046 14 23C14 21.8954 14.8954 21 16 21C17.1046 21 18 21.8954 18 23ZM20.5 19C21.3284 19 22 18.3284 22 17.5C22 16.6716 21.3284 16 20.5 16C19.6716 16 19 16.6716 19 17.5C19 18.3284 19.6716 19 20.5 19ZM30 4.5C30 5.32843 29.3284 6 28.5 6C27.6716 6 27 5.32843 27 4.5C27 3.67157 27.6716 3 28.5 3C29.3284 3 30 3.67157 30 4.5Z" fill="url(#paint0_radial)"/>
<defs>
<radialGradient id="paint0_radial" cx="0" cy="0" r="1" gradientUnits="userSpaceOnUse" gradientTransform="translate(31 31) rotate(-134.549) scale(44.9027 48.1933)">
<stop stop-color="#E374FF"/>
<stop offset="1" stop-color="#7457E7"/>
</radialGradient>
</defs>
</svg>
