<svg width="32" height="32" viewBox="0 0 32 32" fill="none" xmlns="http://www.w3.org/2000/svg">
<path fill-rule="evenodd" clip-rule="evenodd" d="M16 0C11.5817 0 8 3.58172 8 8V10.083C5.16229 10.559 3 13.027 3 16V26C3 29.3137 5.68629 32 9 32H23C26.3137 32 29 29.3137 29 26V16C29 13.027 26.8377 10.559 24 10.083V8C24 3.58172 20.4183 0 16 0ZM9 14C7.89543 14 7 14.8954 7 16V26C7 27.1046 7.89543 28 9 28H23C24.1046 28 25 27.1046 25 26V16C25 14.8954 24.1046 14 23 14H9ZM20 10V8C20 5.79086 18.2091 4 16 4C13.7909 4 12 5.79086 12 8V10H20ZM17 21.7324C17.5978 21.3866 18 20.7403 18 20C18 18.8954 17.1046 18 16 18C14.8954 18 14 18.8954 14 20C14 20.7403 14.4022 21.3866 15 21.7324V23C15 23.5523 15.4477 24 16 24C16.5523 24 17 23.5523 17 23V21.7324Z" fill="url(#paint0_radial)"/>
<defs>
<radialGradient id="paint0_radial" cx="0" cy="0" r="1" gradientUnits="userSpaceOnUse" gradientTransform="translate(19.25 24.5318) rotate(-110.352) scale(32.0391 29.6792)">
<stop stop-color="#E374FF"/>
<stop offset="1" stop-color="#7457E7"/>
</radialGradient>
</defs>
</svg>
