<svg width="32" height="32" viewBox="0 0 32 32" fill="none" xmlns="http://www.w3.org/2000/svg">
<path fill-rule="evenodd" clip-rule="evenodd" d="M19 8C19 9.65685 17.6569 11 16 11C14.3431 11 13 9.65685 13 8C13 6.34315 14.3431 5 16 5C17.6569 5 19 6.34315 19 8ZM17.7379 14.7826C17.1822 14.9245 16.5999 15 16 15C15.3469 15 14.7146 14.9105 14.1148 14.7432L11.7808 18.374C12.5459 19.3812 13 20.6376 13 22C13 25.3137 10.3137 28 7 28C3.68629 28 1 25.3137 1 22C1 18.6863 3.68629 16 7 16C7.49634 16 7.9786 16.0603 8.43987 16.1739L10.7315 12.6091C9.65338 11.3778 9 9.7652 9 8C9 4.13401 12.134 1 16 1C19.866 1 23 4.13401 23 8C23 9.82005 22.3054 11.4779 21.1668 12.7228L24.9845 19.0856C25.3146 19.0293 25.6539 19 26 19C29.3137 19 32 21.6863 32 25C32 28.3137 29.3137 31 26 31C22.6863 31 20 28.3137 20 25C20 23.4825 20.5634 22.0966 21.4923 21.04L17.7379 14.7826ZM9 22C9 23.1046 8.10457 24 7 24C5.89543 24 5 23.1046 5 22C5 20.8954 5.89543 20 7 20C8.10457 20 9 20.8954 9 22ZM26 27C27.1046 27 28 26.1046 28 25C28 23.8954 27.1046 23 26 23C24.8954 23 24 23.8954 24 25C24 26.1046 24.8954 27 26 27Z" fill="url(#paint0_radial)"/>
<defs>
<radialGradient id="paint0_radial" cx="0" cy="0" r="1" gradientUnits="userSpaceOnUse" gradientTransform="translate(32 31) rotate(-138.155) scale(44.9694 49.2974)">
<stop stop-color="#E374FF"/>
<stop offset="1" stop-color="#7457E7"/>
</radialGradient>
</defs>
</svg>
