<svg width="32" height="32" viewBox="0 0 32 32" fill="none" xmlns="http://www.w3.org/2000/svg">
<path fill-rule="evenodd" clip-rule="evenodd" d="M6 0H26C29.3137 0 32 2.68629 32 6V26C32 29.3137 29.3137 32 26 32H6C2.68629 32 0 29.3137 0 26V6C0 2.68629 2.68629 0 6 0ZM4 26V10H28V26C28 27.1046 27.1046 28 26 28H6C4.89543 28 4 27.1046 4 26ZM11 5.5C11 6.32843 10.3284 7 9.5 7C8.67157 7 8 6.32843 8 5.5C8 4.67157 8.67157 4 9.5 4C10.3284 4 11 4.67157 11 5.5ZM24 5.5C24 6.32843 23.3284 7 22.5 7C21.6716 7 21 6.32843 21 5.5C21 4.67157 21.6716 4 22.5 4C23.3284 4 24 4.67157 24 5.5ZM10.283 15.936C9.99364 16.076 9.71364 16.202 9.44297 16.314L10.073 17.924C10.3996 17.812 10.7356 17.6813 11.081 17.532C11.4263 17.3733 11.739 17.2007 12.019 17.014V24H14.105V14.298H12.649C12.4436 14.5127 12.2103 14.718 11.949 14.914C11.697 15.1007 11.431 15.2827 11.151 15.46C10.871 15.628 10.5816 15.7867 10.283 15.936ZM20.438 20.43C20.5593 20.6353 20.62 20.8733 20.62 21.144C20.62 21.4893 20.4753 21.7927 20.186 22.054C19.8967 22.306 19.43 22.432 18.786 22.432C18.254 22.432 17.7967 22.3853 17.414 22.292C17.0313 22.1893 16.7233 22.0867 16.49 21.984L16.112 23.706C16.224 23.762 16.3827 23.818 16.588 23.874C16.7933 23.93 17.022 23.9813 17.274 24.028C17.5353 24.084 17.8013 24.126 18.072 24.154C18.352 24.1913 18.618 24.21 18.87 24.21C19.514 24.21 20.074 24.1307 20.55 23.972C21.0353 23.8133 21.4367 23.594 21.754 23.314C22.0713 23.034 22.3093 22.7027 22.468 22.32C22.6267 21.9373 22.706 21.522 22.706 21.074C22.706 20.1033 22.3793 19.3473 21.726 18.806C21.082 18.2553 20.0787 17.9333 18.716 17.84C18.744 17.6067 18.7673 17.336 18.786 17.028C18.814 16.7107 18.8373 16.384 18.856 16.048H22.356V14.298H17.106C17.0687 15.082 17.0173 15.922 16.952 16.818C16.8867 17.714 16.8027 18.596 16.7 19.464C17.4653 19.464 18.1 19.5013 18.604 19.576C19.108 19.6507 19.5093 19.758 19.808 19.898C20.1067 20.038 20.3167 20.2153 20.438 20.43Z" fill="url(#paint0_radial)"/>
<defs>
<radialGradient id="paint0_radial" cx="0" cy="0" r="1" gradientUnits="userSpaceOnUse" gradientTransform="translate(30 32) rotate(-131.845) scale(44.9694 48.2649)">
<stop stop-color="#E374FF"/>
<stop offset="1" stop-color="#7457E7"/>
</radialGradient>
</defs>
</svg>
