<svg width="32" height="32" viewBox="0 0 32 32" fill="none" xmlns="http://www.w3.org/2000/svg">
<path fill-rule="evenodd" clip-rule="evenodd" d="M10 11.8115L25 6.56153V21.4384L10 16.1884V11.8115ZM12 20.8115L25.0863 25.5831C25.3359 26.4032 26.0983 27 27 27C28.1046 27 29 26.1046 29 25V3C29 1.89543 28.1046 1 27 1C26.0983 1 25.336 1.59673 25.0864 2.41684L8.75379 7.99998H3C1.34315 7.99998 0 9.34312 0 11V17C0 18.6568 1.34315 20 3 20L4.00002 20C5.10458 20 6 20.8954 6 22V26C6 27.1046 6.89543 28 8 28H9C9.55229 28 10 27.5523 10 27V22H11C11.5523 22 12 21.5523 12 21V20.8115ZM4 12V16H6V12H4ZM32 13C32 11.8954 31.1046 11 30 11V17C31.1046 17 32 16.1046 32 15V13Z" fill="url(#paint0_radial)"/>
<defs>
<radialGradient id="paint0_radial" cx="0" cy="0" r="1" gradientUnits="userSpaceOnUse" gradientTransform="translate(30.5 29.5) rotate(-138.311) scale(42.8515 50.9524)">
<stop stop-color="#E374FF"/>
<stop offset="1" stop-color="#7457E7"/>
</radialGradient>
</defs>
</svg>
