<svg width="251" height="20" viewBox="0 0 251 20" fill="none" xmlns="http://www.w3.org/2000/svg">
<path d="M100.101 5.63602C101.852 5.63602 103.342 6.30335 104.573 7.63802C105.821 8.95535 106.445 10.576 106.445 12.5C106.445 14.424 105.821 16.0534 104.573 17.388C103.342 18.7054 101.852 19.364 100.101 19.364C98.2812 19.364 96.8772 18.7314 95.8892 17.466V19H92.5352V0.800019H95.8892V7.53402C96.8772 6.26869 98.2812 5.63602 100.101 5.63602ZM96.9032 15.152C97.5792 15.828 98.4372 16.166 99.4772 16.166C100.517 16.166 101.375 15.828 102.051 15.152C102.744 14.4587 103.091 13.5747 103.091 12.5C103.091 11.4254 102.744 10.55 102.051 9.87402C101.375 9.18069 100.517 8.83402 99.4772 8.83402C98.4372 8.83402 97.5792 9.18069 96.9032 9.87402C96.2272 10.55 95.8892 11.4254 95.8892 12.5C95.8892 13.5747 96.2272 14.4587 96.9032 15.152Z" fill="#28C0FF"/>
<path d="M108.811 19V0.0200195H112.165V19H108.811Z" fill="#28C0FF"/>
<path d="M126.31 17.388C124.976 18.7054 123.346 19.364 121.422 19.364C119.498 19.364 117.869 18.7054 116.534 17.388C115.217 16.0534 114.558 14.424 114.558 12.5C114.558 10.576 115.217 8.95535 116.534 7.63802C117.869 6.30335 119.498 5.63602 121.422 5.63602C123.346 5.63602 124.976 6.30335 126.31 7.63802C127.645 8.95535 128.312 10.576 128.312 12.5C128.312 14.424 127.645 16.0534 126.31 17.388ZM118.9 15.074C119.576 15.75 120.417 16.088 121.422 16.088C122.428 16.088 123.268 15.75 123.944 15.074C124.62 14.398 124.958 13.54 124.958 12.5C124.958 11.46 124.62 10.602 123.944 9.92602C123.268 9.25002 122.428 8.91202 121.422 8.91202C120.417 8.91202 119.576 9.25002 118.9 9.92602C118.242 10.602 117.912 11.46 117.912 12.5C117.912 13.54 118.242 14.398 118.9 15.074Z" fill="#28C0FF"/>
<path d="M136.86 19.364C134.901 19.364 133.263 18.7054 131.946 17.388C130.646 16.0707 129.996 14.4414 129.996 12.5C129.996 10.5587 130.646 8.92935 131.946 7.61202C133.263 6.29469 134.901 5.63602 136.86 5.63602C138.125 5.63602 139.278 5.93935 140.318 6.54602C141.358 7.15269 142.147 7.96735 142.684 8.99002L139.798 10.68C139.538 10.1427 139.139 9.71802 138.602 9.40602C138.082 9.09402 137.493 8.93802 136.834 8.93802C135.829 8.93802 134.997 9.27602 134.338 9.95202C133.679 10.6107 133.35 11.46 133.35 12.5C133.35 13.5227 133.679 14.372 134.338 15.048C134.997 15.7067 135.829 16.036 136.834 16.036C137.51 16.036 138.108 15.8887 138.628 15.594C139.165 15.282 139.564 14.8574 139.824 14.32L142.736 15.984C142.164 17.0067 141.358 17.83 140.318 18.454C139.278 19.0607 138.125 19.364 136.86 19.364Z" fill="#28C0FF"/>
<path d="M156.496 19H152.596L147.864 13.098V19H144.51V0.800019H147.864V11.72L152.336 6.00002H156.34L151.114 12.422L156.496 19Z" fill="#28C0FF"/>
<path d="M163.418 19.364C161.46 19.364 159.822 18.7054 158.504 17.388C157.204 16.0707 156.554 14.4414 156.554 12.5C156.554 10.5587 157.204 8.92935 158.504 7.61202C159.822 6.29469 161.46 5.63602 163.418 5.63602C164.684 5.63602 165.836 5.93935 166.876 6.54602C167.916 7.15269 168.705 7.96735 169.242 8.99002L166.356 10.68C166.096 10.1427 165.698 9.71802 165.16 9.40602C164.64 9.09402 164.051 8.93802 163.392 8.93802C162.387 8.93802 161.555 9.27602 160.896 9.95202C160.238 10.6107 159.908 11.46 159.908 12.5C159.908 13.5227 160.238 14.372 160.896 15.048C161.555 15.7067 162.387 16.036 163.392 16.036C164.068 16.036 164.666 15.8887 165.186 15.594C165.724 15.282 166.122 14.8574 166.382 14.32L169.294 15.984C168.722 17.0067 167.916 17.83 166.876 18.454C165.836 19.0607 164.684 19.364 163.418 19.364Z" fill="#28C0FF"/>
<path d="M178.296 5.63602C179.718 5.63602 180.888 6.11269 181.806 7.06602C182.742 8.01935 183.21 9.33669 183.21 11.018V19H179.856V11.434C179.856 10.5674 179.622 9.90869 179.154 9.45802C178.686 8.99002 178.062 8.75602 177.282 8.75602C176.416 8.75602 175.722 9.02469 175.202 9.56202C174.682 10.0994 174.422 10.9054 174.422 11.98V19H171.068V0.800019H174.422V7.45602C175.237 6.24269 176.528 5.63602 178.296 5.63602Z" fill="#28C0FF"/>
<path d="M195.954 6.00002H199.308V19H195.954V17.466C194.949 18.7314 193.536 19.364 191.716 19.364C189.983 19.364 188.492 18.7054 187.244 17.388C186.014 16.0534 185.398 14.424 185.398 12.5C185.398 10.576 186.014 8.95535 187.244 7.63802C188.492 6.30335 189.983 5.63602 191.716 5.63602C193.536 5.63602 194.949 6.26869 195.954 7.53402V6.00002ZM189.766 15.152C190.442 15.828 191.3 16.166 192.34 16.166C193.38 16.166 194.238 15.828 194.914 15.152C195.608 14.4587 195.954 13.5747 195.954 12.5C195.954 11.4254 195.608 10.55 194.914 9.87402C194.238 9.18069 193.38 8.83402 192.34 8.83402C191.3 8.83402 190.442 9.18069 189.766 9.87402C189.09 10.55 188.752 11.4254 188.752 12.5C188.752 13.5747 189.09 14.4587 189.766 15.152Z" fill="#28C0FF"/>
<path d="M204.014 4.44002C203.459 4.44002 202.974 4.24069 202.558 3.84202C202.159 3.42602 201.96 2.94069 201.96 2.38602C201.96 1.83135 202.159 1.34602 202.558 0.930018C202.974 0.514019 203.459 0.306019 204.014 0.306019C204.586 0.306019 205.071 0.514019 205.47 0.930018C205.886 1.34602 206.094 1.83135 206.094 2.38602C206.094 2.94069 205.886 3.42602 205.47 3.84202C205.071 4.24069 204.586 4.44002 204.014 4.44002ZM202.35 19V6.00002H205.704V19H202.35Z" fill="#28C0FF"/>
<path d="M216.001 5.63602C217.423 5.63602 218.593 6.11269 219.511 7.06602C220.447 8.01935 220.915 9.33669 220.915 11.018V19H217.561V11.434C217.561 10.5674 217.327 9.90869 216.859 9.45802C216.391 8.99002 215.767 8.75602 214.987 8.75602C214.121 8.75602 213.427 9.02469 212.907 9.56202C212.387 10.0994 212.127 10.9054 212.127 11.98V19H208.773V6.00002H212.127V7.45602C212.942 6.24269 214.233 5.63602 216.001 5.63602Z" fill="#28C0FF"/>
<path d="M228.045 18.688C227.612 19.1214 227.092 19.338 226.485 19.338C225.879 19.338 225.359 19.1214 224.925 18.688C224.492 18.2547 224.275 17.7347 224.275 17.128C224.275 16.5214 224.492 16.0014 224.925 15.568C225.359 15.1347 225.879 14.918 226.485 14.918C227.092 14.918 227.612 15.1347 228.045 15.568C228.479 16.0014 228.695 16.5214 228.695 17.128C228.695 17.7347 228.479 18.2547 228.045 18.688Z" fill="white"/>
<path d="M233.156 4.44003C232.602 4.44003 232.116 4.2407 231.7 3.84203C231.302 3.42603 231.102 2.9407 231.102 2.38603C231.102 1.83136 231.302 1.34603 231.7 0.93003C232.116 0.51403 232.602 0.30603 233.156 0.30603C233.728 0.30603 234.214 0.51403 234.612 0.93003C235.028 1.34603 235.236 1.83136 235.236 2.38603C235.236 2.9407 235.028 3.42603 234.612 3.84203C234.214 4.2407 233.728 4.44003 233.156 4.44003ZM231.492 19V6.00003H234.846V19H231.492Z" fill="white"/>
<path d="M248.992 17.388C247.658 18.7054 246.028 19.364 244.104 19.364C242.18 19.364 240.551 18.7054 239.216 17.388C237.899 16.0534 237.24 14.424 237.24 12.5C237.24 10.576 237.899 8.95536 239.216 7.63803C240.551 6.30336 242.18 5.63603 244.104 5.63603C246.028 5.63603 247.658 6.30336 248.992 7.63803C250.327 8.95536 250.994 10.576 250.994 12.5C250.994 14.424 250.327 16.0534 248.992 17.388ZM241.582 15.074C242.258 15.75 243.099 16.088 244.104 16.088C245.11 16.088 245.95 15.75 246.626 15.074C247.302 14.398 247.64 13.54 247.64 12.5C247.64 11.46 247.302 10.602 246.626 9.92603C245.95 9.25003 245.11 8.91203 244.104 8.91203C243.099 8.91203 242.258 9.25003 241.582 9.92603C240.924 10.602 240.594 11.46 240.594 12.5C240.594 13.54 240.924 14.398 241.582 15.074Z" fill="white"/>
<path d="M7.72338 19.364C5.76471 19.364 4.12671 18.7054 2.80938 17.388C1.50937 16.0707 0.859375 14.4414 0.859375 12.5C0.859375 10.5587 1.50937 8.92936 2.80938 7.61203C4.12671 6.2947 5.76471 5.63603 7.72338 5.63603C8.98871 5.63603 10.1414 5.93936 11.1814 6.54603C12.2214 7.1527 13.01 7.96736 13.5474 8.99003L10.6614 10.68C10.4014 10.1427 10.0027 9.71803 9.46538 9.40603C8.94538 9.09403 8.35604 8.93803 7.69738 8.93803C6.69204 8.93803 5.86004 9.27603 5.20138 9.95203C4.54271 10.6107 4.21337 11.46 4.21337 12.5C4.21337 13.5227 4.54271 14.372 5.20138 15.048C5.86004 15.7067 6.69204 16.036 7.69738 16.036C8.37338 16.036 8.97137 15.8887 9.49137 15.594C10.0287 15.282 10.4274 14.8574 10.6874 14.32L13.5994 15.984C13.0274 17.0067 12.2214 17.83 11.1814 18.454C10.1414 19.0607 8.98871 19.364 7.72338 19.364Z" fill="url(#paint0_linear)"/>
<path d="M25.0501 6.00003H28.4041V19H25.0501V17.466C24.0448 18.7314 22.6321 19.364 20.8121 19.364C19.0788 19.364 17.5881 18.7054 16.3401 17.388C15.1095 16.0534 14.4941 14.424 14.4941 12.5C14.4941 10.576 15.1095 8.95536 16.3401 7.63803C17.5881 6.30336 19.0788 5.63603 20.8121 5.63603C22.6321 5.63603 24.0448 6.2687 25.0501 7.53403V6.00003ZM18.8621 15.152C19.5381 15.828 20.3961 16.166 21.4361 16.166C22.4761 16.166 23.3341 15.828 24.0101 15.152C24.7035 14.4587 25.0501 13.5747 25.0501 12.5C25.0501 11.4254 24.7035 10.55 24.0101 9.87403C23.3341 9.1807 22.4761 8.83403 21.4361 8.83403C20.3961 8.83403 19.5381 9.1807 18.8621 9.87403C18.1861 10.55 17.8481 11.4254 17.8481 12.5C17.8481 13.5747 18.1861 14.4587 18.8621 15.152Z" fill="url(#paint1_linear)"/>
<path d="M34.438 9.69203C34.438 10.0387 34.6633 10.3247 35.114 10.55C35.582 10.758 36.1453 10.9487 36.804 11.122C37.4626 11.278 38.1213 11.486 38.78 11.746C39.4386 11.9887 39.9933 12.4047 40.444 12.994C40.912 13.5834 41.146 14.32 41.146 15.204C41.146 16.5387 40.6433 17.57 39.638 18.298C38.65 19.0087 37.4106 19.364 35.92 19.364C33.2506 19.364 31.4306 18.3327 30.46 16.27L33.372 14.632C33.7533 15.7587 34.6026 16.322 35.92 16.322C37.116 16.322 37.714 15.9494 37.714 15.204C37.714 14.8574 37.48 14.58 37.012 14.372C36.5613 14.1467 36.0066 13.9474 35.348 13.774C34.6893 13.6007 34.0306 13.384 33.372 13.124C32.7133 12.864 32.15 12.4567 31.682 11.902C31.2313 11.33 31.006 10.6194 31.006 9.77003C31.006 8.48736 31.474 7.48203 32.41 6.75403C33.3633 6.0087 34.542 5.63603 35.946 5.63603C37.0033 5.63603 37.9653 5.8787 38.832 6.36403C39.6986 6.83203 40.3833 7.50803 40.886 8.39203L38.026 9.95203C37.61 9.06803 36.9166 8.62603 35.946 8.62603C35.5126 8.62603 35.1486 8.72136 34.854 8.91203C34.5766 9.1027 34.438 9.3627 34.438 9.69203Z" fill="url(#paint2_linear)"/>
<path d="M44.967 4.44003C44.4123 4.44003 43.927 4.2407 43.511 3.84203C43.1123 3.42603 42.913 2.9407 42.913 2.38603C42.913 1.83136 43.1123 1.34603 43.511 0.93003C43.927 0.51403 44.4123 0.30603 44.967 0.30603C45.539 0.30603 46.0243 0.51403 46.423 0.93003C46.839 1.34603 47.047 1.83136 47.047 2.38603C47.047 2.9407 46.839 3.42603 46.423 3.84203C46.0243 4.2407 45.539 4.44003 44.967 4.44003ZM43.303 19V6.00003H46.657V19H43.303Z" fill="url(#paint3_linear)"/>
<path d="M56.9548 5.63603C58.3761 5.63603 59.5461 6.1127 60.4648 7.06603C61.4008 8.01936 61.8688 9.3367 61.8688 11.018V19H58.5148V11.434C58.5148 10.5674 58.2808 9.9087 57.8128 9.45803C57.3448 8.99003 56.7208 8.75603 55.9408 8.75603C55.0741 8.75603 54.3808 9.0247 53.8608 9.56203C53.3408 10.0994 53.0808 10.9054 53.0808 11.98V19H49.7268V6.00003H53.0808V7.45603C53.8954 6.2427 55.1868 5.63603 56.9548 5.63603Z" fill="url(#paint4_linear)"/>
<path d="M75.8086 17.388C74.474 18.7054 72.8446 19.364 70.9206 19.364C68.9966 19.364 67.3673 18.7054 66.0326 17.388C64.7153 16.0534 64.0566 14.424 64.0566 12.5C64.0566 10.576 64.7153 8.95536 66.0326 7.63803C67.3673 6.30336 68.9966 5.63603 70.9206 5.63603C72.8446 5.63603 74.474 6.30336 75.8086 7.63803C77.1433 8.95536 77.8106 10.576 77.8106 12.5C77.8106 14.424 77.1433 16.0534 75.8086 17.388ZM68.3986 15.074C69.0746 15.75 69.9153 16.088 70.9206 16.088C71.926 16.088 72.7666 15.75 73.4426 15.074C74.1186 14.398 74.4566 13.54 74.4566 12.5C74.4566 11.46 74.1186 10.602 73.4426 9.92603C72.7666 9.25003 71.926 8.91203 70.9206 8.91203C69.9153 8.91203 69.0746 9.25003 68.3986 9.92603C67.74 10.602 67.4106 11.46 67.4106 12.5C67.4106 13.54 67.74 14.398 68.3986 15.074Z" fill="url(#paint5_linear)"/>
<path d="M82.9848 9.69203C82.9848 10.0387 83.2102 10.3247 83.6608 10.55C84.1288 10.758 84.6922 10.9487 85.3508 11.122C86.0095 11.278 86.6682 11.486 87.3268 11.746C87.9855 11.9887 88.5402 12.4047 88.9908 12.994C89.4588 13.5834 89.6928 14.32 89.6928 15.204C89.6928 16.5387 89.1902 17.57 88.1848 18.298C87.1968 19.0087 85.9575 19.364 84.4668 19.364C81.7975 19.364 79.9775 18.3327 79.0068 16.27L81.9188 14.632C82.3002 15.7587 83.1495 16.322 84.4668 16.322C85.6628 16.322 86.2608 15.9494 86.2608 15.204C86.2608 14.8574 86.0268 14.58 85.5588 14.372C85.1082 14.1467 84.5535 13.9474 83.8948 13.774C83.2362 13.6007 82.5775 13.384 81.9188 13.124C81.2602 12.864 80.6968 12.4567 80.2288 11.902C79.7782 11.33 79.5528 10.6194 79.5528 9.77003C79.5528 8.48736 80.0208 7.48203 80.9568 6.75403C81.9102 6.0087 83.0888 5.63603 84.4928 5.63603C85.5502 5.63603 86.5122 5.8787 87.3788 6.36403C88.2455 6.83203 88.9302 7.50803 89.4328 8.39203L86.5728 9.95203C86.1568 9.06803 85.4635 8.62603 84.4928 8.62603C84.0595 8.62603 83.6955 8.72136 83.4008 8.91203C83.1235 9.1027 82.9848 9.3627 82.9848 9.69203Z" fill="url(#paint6_linear)"/>
<defs>
<linearGradient id="paint0_linear" x1="-43.5574" y1="9.83503" x2="-35.7399" y2="46.2739" gradientUnits="userSpaceOnUse">
<stop stop-color="#F45E3B"/>
<stop offset="1" stop-color="#F43B3B"/>
</linearGradient>
<linearGradient id="paint1_linear" x1="-43.5574" y1="9.83503" x2="-35.7399" y2="46.2739" gradientUnits="userSpaceOnUse">
<stop stop-color="#F45E3B"/>
<stop offset="1" stop-color="#F43B3B"/>
</linearGradient>
<linearGradient id="paint2_linear" x1="-43.5574" y1="9.83503" x2="-35.7399" y2="46.2739" gradientUnits="userSpaceOnUse">
<stop stop-color="#F45E3B"/>
<stop offset="1" stop-color="#F43B3B"/>
</linearGradient>
<linearGradient id="paint3_linear" x1="-43.5574" y1="9.83503" x2="-35.7399" y2="46.2739" gradientUnits="userSpaceOnUse">
<stop stop-color="#F45E3B"/>
<stop offset="1" stop-color="#F43B3B"/>
</linearGradient>
<linearGradient id="paint4_linear" x1="-43.5574" y1="9.83503" x2="-35.7399" y2="46.2739" gradientUnits="userSpaceOnUse">
<stop stop-color="#F45E3B"/>
<stop offset="1" stop-color="#F43B3B"/>
</linearGradient>
<linearGradient id="paint5_linear" x1="-43.5574" y1="9.83503" x2="-35.7399" y2="46.2739" gradientUnits="userSpaceOnUse">
<stop stop-color="#F45E3B"/>
<stop offset="1" stop-color="#F43B3B"/>
</linearGradient>
<linearGradient id="paint6_linear" x1="-43.5574" y1="9.83503" x2="-35.7399" y2="46.2739" gradientUnits="userSpaceOnUse">
<stop stop-color="#F45E3B"/>
<stop offset="1" stop-color="#F43B3B"/>
</linearGradient>
</defs>
</svg>
