<?xml version="1.0" encoding="UTF-8" standalone="no"?>
<svg xmlns="http://www.w3.org/2000/svg" height="65px" width="424px" version="1.1" xmlns:xlink="http://www.w3.org/1999/xlink" viewBox="0 0 424 65"><!-- Generator: Sketch 52.1 (67048) - http://www.bohemiancoding.com/sketch -->
 <title>de</title>
 <desc>Created with Sketch.</desc>
 <defs>
  <linearGradient id="linearGradient-1" x2="50%" x1="50%" y2="164.48%">
   <stop stop-color="#FF727E" offset="0"/>
   <stop stop-color="#D00221" offset="1"/>
  </linearGradient>
 </defs>
 <g id="Web" fill-rule="evenodd" fill="none">
  <g id="casino-pilot-en" transform="translate(-68 -376)">
   <g id="de" transform="translate(68 369)">
    <g id="Group-2" fill="#fff">
     <g id="Group-3">
      <path id="CASINO" d="m27.307 22.917v7.257c0 0.672-0.403 1.076-1.075 1.076h-6.72c-0.739 0-1.075-0.404-1.075-1.076v-5.376c0-1.747-0.941-2.688-2.688-2.688h-3.495c-1.814 0-2.6876 0.941-2.6876 2.688v30.644c0 1.814 0.9406 2.688 2.6876 2.688h3.495c1.747 0 2.688-0.874 2.688-2.688v-5.376c0-0.672 0.336-1.076 1.075-1.076h6.72c0.672 0 1.075 0.404 1.075 1.076v7.257c0 6.317-3.427 9.677-9.677 9.677h-7.526c-6.3168 0-9.744-3.36-9.744-9.677v-34.406c0-6.317 3.4272-9.677 9.744-9.677h7.526c6.25 0 9.677 3.36 9.677 9.677zm38.439 44.083h-7.124c-0.604 0-0.94-0.336-1.075-0.941l-1.881-9.811h-11.962l-1.814 9.811c-0.135 0.605-0.471 0.941-1.076 0.941h-7.19c-0.739 0-1.075-0.403-0.874-1.142l11.156-51.677c0.134-0.672 0.537-0.941 1.142-0.941h9.341c0.605 0 1.008 0.269 1.142 0.941l11.155 51.677c0.135 0.739-0.134 1.142-0.94 1.142zm-11.76-18.547l-4.301-23.453-4.301 23.453h8.602zm26.409-35.213h7.527c6.316 0 9.676 3.36 9.676 9.677v7.123c0 0.672-0.336 1.075-1.075 1.075h-6.989c-0.672 0-1.075-0.403-1.075-1.075v-5.242c0-1.747-0.873-2.688-2.688-2.688h-3.225c-1.68 0-2.688 0.941-2.688 2.688v9.274l15.993 5.242c1.143 0.47 1.747 1.209 1.747 2.486v15.523c0 6.317-3.36 9.677-9.676 9.677h-7.527c-6.249 0-9.677-3.36-9.677-9.677v-7.056c0-0.739 0.404-1.075 1.076-1.075h6.988c0.74 0 1.076 0.336 1.076 1.075v5.175c0 1.814 1.008 2.688 2.688 2.688h3.225c1.747 0 2.688-0.874 2.688-2.688v-8.938l-15.926-5.242c-1.21-0.403-1.815-1.209-1.815-2.486v-15.859c0-6.317 3.428-9.677 9.677-9.677zm24.995 0h6.99c0.67 0 1.08 0.403 1.08 1.075v51.61c0 0.672-0.41 1.075-1.08 1.075h-6.99c-0.74 0-1.07-0.403-1.07-1.075v-51.61c0-0.672 0.33-1.075 1.07-1.075zm35.42 0h6.99c0.67 0 1.07 0.403 1.07 1.075v51.61c0 0.672-0.4 1.075-1.07 1.075h-6.66c-0.6 0-1-0.269-1.21-0.874l-10.28-28.694h-0.33v28.493c0 0.672-0.34 1.075-1.08 1.075h-6.99c-0.67 0-1.07-0.403-1.07-1.075v-51.61c0-0.672 0.4-1.075 1.07-1.075h6.66c0.6 0 1 0.269 1.21 0.874l10.21 28.56h0.4v-28.359c0-0.672 0.34-1.075 1.08-1.075zm14.78 44.083v-34.406c0-6.317 3.36-9.677 9.68-9.677h7.53c6.31 0 9.67 3.36 9.67 9.677v34.406c0 6.317-3.36 9.677-9.67 9.677h-7.53c-6.32 0-9.68-3.36-9.68-9.677zm11.63 1.008h3.9c1.74 0 2.68-0.873 2.68-2.688v-31.046c0-1.747-0.94-2.688-2.68-2.688h-3.9c-1.75 0-2.69 0.941-2.69 2.688v31.046c0 1.815 0.94 2.688 2.69 2.688z"/>
      <path id="24" d="m383.43 41.262l-14.99 8.064c-0.67 0.404-0.94 0.874-0.94 1.613v5.847c0 0.873 0.47 1.344 1.34 1.344h7.26v-2.756c0-0.873 0.47-1.344 1.34-1.344h6.46c0.87 0 1.34 0.471 1.34 1.344v10.282c0 0.874-0.47 1.344-1.34 1.344h-24.2c-0.87 0-1.34-0.47-1.34-1.344v-19.824c0-1.277 0.47-1.814 1.75-2.486l15.99-8.602v-9.946c0-1.747-1.01-2.688-2.69-2.688h-3.22c-1.82 0-2.69 0.941-2.69 2.688v5.242c0 0.672-0.4 1.075-1.08 1.075h-6.98c-0.74 0-1.08-0.403-1.08-1.075v-7.123c0-6.317 3.36-9.677 9.68-9.677h7.52c6.25 0 9.68 3.36 9.68 9.677v15.859c0 1.277-0.54 1.814-1.81 2.486zm36.35 1.412h2.76c0.87 0 1.34 0.47 1.34 1.344v5.779c0 0.873-0.47 1.344-1.34 1.344h-2.76v14.515c0 0.874-0.47 1.344-1.34 1.344h-5.85c-0.87 0-1.34-0.47-1.34-1.344v-14.65h-19.29c-0.87 0-1.34-0.47-1.34-1.344v-5.98c0-0.605 0.13-1.076 0.47-1.613l17.27-27.955c0.33-0.605 0.87-0.874 1.61-0.874h7.06c1.07 0 1.47 0.672 0.87 1.613l-16.87 27.955h10.22v-8.064c0-0.874 0.47-1.344 1.34-1.344h5.85c0.87 0 1.34 0.47 1.34 1.344v7.93z"/>
     </g>
    </g>
    <g id="Pilot" fill="url(#linearGradient-1)" transform="translate(197)">
     <path id="Combined-Shape" d="m0.36 65.925v-51.61c0-0.672 0.4032-1.075 1.0752-1.075h16.128c6.317 0 9.677 3.36 9.677 9.677v16.397c0 6.249-3.36 9.676-9.677 9.676h-8.0638v16.935c0 0.672-0.336 1.075-1.0752 1.075h-6.9888c-0.672 0-1.0752-0.403-1.0752-1.075zm9.1392-25.805h5.9138c1.814 0 2.688-1.008 2.688-2.688v-12.634c0-1.747-0.874-2.688-2.688-2.688h-5.9138v18.01zm25.536-26.88h6.989c0.672 0 1.075 0.403 1.075 1.075v51.61c0 0.672-0.403 1.075-1.075 1.075h-6.989c-0.739 0-1.075-0.403-1.075-1.075v-51.61c0-0.672 0.336-1.075 1.075-1.075zm23.923 44.89h15.994c0.739 0 1.075 0.403 1.075 1.075v6.72c0 0.739-0.336 1.075-1.075 1.075h-24.058c-0.672 0-1.075-0.336-1.075-1.075v-51.61c0-0.672 0.403-1.075 1.075-1.075h6.989c0.739 0 1.075 0.403 1.075 1.075v43.815zm63.922-44.89h24.73c0.74 0 1.07 0.403 1.07 1.075v6.72c0 0.672-0.33 1.075-1.07 1.075h-7.8v43.815c0 0.739-0.33 1.075-1.07 1.075h-6.99c-0.67 0-1.08-0.336-1.08-1.075v-43.815h-7.79c-0.67 0-1.08-0.403-1.08-1.075v-6.72c0-0.672 0.41-1.075 1.08-1.075z"/>
     <path id="Combined-Shape" transform="translate(96 39.5) rotate(-73) translate(-96 -39.5)" d="m91.745 39.817c-0.173-2.352 1.59-4.399 3.941-4.575 2.351-0.173 4.394 1.592 4.574 3.944 0.17 2.35-1.595 4.397-3.944 4.569-2.351 0.175-4.395-1.59-4.571-3.938zm1.963-31.33s0.76-0.1186 2.086-0.3294c0.713-0.0703 1.495-0.0967 2.436-0.1318 0.922-0.0857 2.01 0.0593 3.19 0.1406 1.19 0.0856 2.42 0.3755 3.75 0.6456 1.28 0.402 2.69 0.7204 4.03 1.3636 1.39 0.534 2.72 1.283 4.08 2.054 1.29 0.883 2.62 1.75 3.8 2.811 0.62 0.501 1.19 1.045 1.72 1.63 0.54 0.584 1.13 1.102 1.6 1.73 0.49 0.604 0.97 1.213 1.43 1.821 0.41 0.641 0.82 1.276 1.22 1.9 0.8 1.249 1.39 2.563 1.93 3.797 0.48 1.265 0.95 2.451 1.19 3.606 0.14 0.567 0.28 1.112 0.41 1.628 0.07 0.529 0.14 1.03 0.2 1.502 0.15 0.935 0.23 1.752 0.21 2.433 0.01 1.347 0.01 2.117 0.01 2.117s-0.18-0.744-0.5-2.046c-0.13-0.651-0.38-1.417-0.67-2.293-0.24-0.883-0.6-1.85-1.05-2.88-0.37-1.054-0.97-2.112-1.52-3.254-0.62-1.11-1.3-2.267-2.09-3.394-0.4-0.555-0.82-1.122-1.23-1.695-0.47-0.532-0.94-1.076-1.39-1.632-0.45-0.575-1.01-1.039-1.51-1.568-0.5-0.534-1.05-1.023-1.62-1.476-1.07-1.004-2.29-1.823-3.46-2.668-1.25-0.714-2.42-1.536-3.68-2.089-1.22-0.654-2.49-1.087-3.66-1.586-1.21-0.349-2.36-0.7947-3.44-1.0209-1.08-0.2065-2.054-0.5315-2.998-0.6106-0.915-0.1273-1.712-0.2394-2.371-0.3316-1.337-0.1098-2.103-0.1735-2.103-0.1735zm4.573 62.027s-0.76 0.12-2.086 0.329c-0.711 0.07-1.495 0.097-2.432 0.132-0.922 0.083-2.011-0.062-3.192-0.141-1.185-0.09-2.417-0.375-3.747-0.648-1.285-0.401-2.692-0.72-4.031-1.363-1.383-0.536-2.724-1.283-4.081-2.056-1.284-0.881-2.613-1.75-3.796-2.811-0.619-0.501-1.19-1.048-1.725-1.63-0.532-0.584-1.129-1.1-1.594-1.733-0.494-0.601-0.973-1.21-1.431-1.818-0.413-0.644-0.821-1.276-1.221-1.9-0.793-1.247-1.385-2.563-1.923-3.797-0.487-1.265-0.953-2.449-1.192-3.604-0.143-0.569-0.279-1.112-0.409-1.628-0.072-0.529-0.14-1.032-0.204-1.502-0.145-0.938-0.228-1.753-0.213-2.433-0.002-1.347-0.004-2.118-0.004-2.118s0.184 0.745 0.505 2.047c0.121 0.65 0.38 1.417 0.661 2.293 0.248 0.883 0.606 1.847 1.049 2.879 0.378 1.055 0.973 2.111 1.524 3.253 0.619 1.109 1.299 2.267 2.087 3.393 0.404 0.556 0.815 1.123 1.232 1.698 0.472 0.529 0.937 1.074 1.394 1.63 0.437 0.575 1.008 1.041 1.506 1.57 0.5 0.531 1.043 1.023 1.618 1.476 1.071 1.001 2.285 1.823 3.457 2.666 1.247 0.716 2.418 1.537 3.684 2.091 1.219 0.654 2.481 1.087 3.653 1.586 1.212 0.351 2.362 0.792 3.438 1.023 1.087 0.204 2.057 0.529 3.001 0.611 0.913 0.127 1.71 0.239 2.369 0.331 1.337 0.112 2.103 0.174 2.103 0.174zm-4.219-57.234s0.641-0.115 1.762-0.317c0.608-0.07 1.267-0.105 2.064-0.147 0.777-0.085 1.706 0.024 2.712 0.084 1.01 0.061 2.06 0.294 3.19 0.516 1.1 0.331 2.3 0.593 3.44 1.135 1.18 0.45 2.33 1.079 3.48 1.733 1.1 0.749 2.23 1.487 3.24 2.39 1.05 0.852 1.94 1.88 2.82 2.863 0.87 1.009 1.6 2.093 2.24 3.178 0.68 1.063 1.17 2.188 1.62 3.24 0.41 1.078 0.79 2.089 0.98 3.077 0.12 0.481 0.23 0.944 0.33 1.386 0.06 0.448 0.11 0.876 0.16 1.276 0.11 0.799 0.17 1.491 0.14 2.071-0.02 1.142-0.03 1.794-0.03 1.794s-0.17-0.626-0.47-1.724c-0.11-0.549-0.34-1.193-0.59-1.928-0.22-0.743-0.54-1.551-0.92-2.416-0.33-0.883-0.85-1.766-1.32-2.726-0.53-0.926-1.11-1.891-1.78-2.835-0.34-0.466-0.69-0.938-1.04-1.419-0.4-0.441-0.79-0.896-1.18-1.364-0.82-0.878-1.65-1.794-2.62-2.55-0.9-0.843-1.92-1.532-2.9-2.242-1.05-0.602-2.02-1.3-3.09-1.77-1.01-0.556-2.07-0.929-3.05-1.36-1.02-0.298-1.99-0.687-2.89-0.891-0.909-0.182-1.721-0.47-2.518-0.551-0.773-0.123-1.445-0.229-2-0.317-1.133-0.118-1.78-0.186-1.78-0.186zm3.868 52.439s-0.641 0.115-1.763 0.317c-0.608 0.065-1.265 0.105-2.062 0.145-0.779 0.083-1.708-0.025-2.711-0.084-1.012-0.064-2.059-0.292-3.192-0.516-1.095-0.332-2.298-0.595-3.435-1.138-1.181-0.45-2.327-1.076-3.482-1.733-1.096-0.746-2.228-1.484-3.238-2.389-1.045-0.85-1.939-1.878-2.821-2.862-0.867-1.008-1.596-2.093-2.242-3.178-0.671-1.063-1.168-2.187-1.615-3.239-0.404-1.076-0.789-2.089-0.982-3.075-0.114-0.483-0.221-0.947-0.327-1.386-0.057-0.45-0.107-0.878-0.158-1.278-0.107-0.797-0.167-1.489-0.143-2.069 0.022-1.142 0.036-1.794 0.036-1.794s0.169 0.626 0.465 1.724c0.112 0.547 0.345 1.192 0.593 1.926 0.221 0.742 0.535 1.553 0.922 2.416 0.327 0.883 0.843 1.768 1.313 2.725 0.529 0.927 1.108 1.891 1.776 2.836 0.342 0.465 0.691 0.938 1.045 1.416 0.395 0.444 0.788 0.899 1.174 1.366 0.825 0.881 1.657 1.795 2.626 2.548 0.895 0.843 1.914 1.535 2.895 2.245 1.047 0.599 2.024 1.3 3.085 1.77 1.02 0.555 2.076 0.929 3.06 1.357 1.014 0.301 1.98 0.687 2.882 0.894 0.911 0.182 1.721 0.472 2.521 0.551 0.772 0.123 1.444 0.229 1.997 0.319 1.133 0.118 1.781 0.186 1.781 0.186zm-3.515-47.645s0.525-0.125 1.44-0.305c0.505-0.068 1.036-0.114 1.69-0.163 0.635-0.083 1.403-0.011 2.233 0.024 0.842 0.04 1.702 0.216 2.642 0.389 0.9 0.264 1.9 0.466 2.84 0.907 0.98 0.367 1.93 0.874 2.88 1.415 0.91 0.614 1.84 1.221 2.68 1.963 0.86 0.707 1.6 1.555 2.33 2.37 0.71 0.832 1.3 1.737 1.83 2.633 0.55 0.881 0.94 1.814 1.3 2.686 0.33 0.892 0.63 1.731 0.78 2.545 0.21 0.793 0.31 1.536 0.35 2.201 0.08 0.657 0.11 1.228 0.08 1.702-0.03 0.947-0.07 1.474-0.07 1.474s-0.16-0.51-0.43-1.401c-0.1-0.448-0.31-0.969-0.53-1.562-0.19-0.602-0.47-1.256-0.79-1.952-0.6-1.408-1.49-2.948-2.57-4.476-0.28-0.376-0.57-0.756-0.85-1.142-0.33-0.356-0.65-0.721-0.96-1.098-0.67-0.708-1.35-1.446-2.13-2.054-0.72-0.685-1.54-1.243-2.33-1.821-0.85-0.485-1.64-1.063-2.49-1.447-0.83-0.455-1.68-0.773-2.47-1.131-0.82-0.253-1.6-0.586-2.327-0.764-0.735-0.161-1.387-0.413-2.044-0.492-0.627-0.117-1.174-0.218-1.629-0.303-0.924-0.11-1.455-0.198-1.455-0.198zm3.163 42.851s-0.522 0.125-1.438 0.305c-0.507 0.068-1.038 0.114-1.692 0.163-0.632 0.083-1.403 0.011-2.233-0.027-0.834-0.039-1.701-0.215-2.636-0.388-0.905-0.264-1.901-0.466-2.843-0.907-0.975-0.367-1.928-0.872-2.88-1.415-0.905-0.617-1.842-1.223-2.677-1.965-0.862-0.705-1.598-1.555-2.324-2.37-0.718-0.833-1.307-1.735-1.833-2.631-0.549-0.881-0.947-1.812-1.304-2.686-0.328-0.892-0.628-1.729-0.773-2.544-0.209-0.792-0.316-1.535-0.356-2.2-0.079-0.657-0.11-1.228-0.077-1.702 0.031-0.947 0.073-1.474 0.073-1.474s0.153 0.51 0.428 1.401c0.103 0.444 0.309 0.969 0.527 1.562 0.193 0.602 0.467 1.256 0.79 1.952 0.606 1.408 1.495 2.945 2.571 4.476 0.281 0.374 0.566 0.753 0.854 1.14 0.327 0.356 0.645 0.72 0.955 1.098 0.671 0.71 1.345 1.447 2.129 2.054 0.722 0.685 1.543 1.245 2.334 1.82 0.847 0.486 1.631 1.066 2.485 1.448 0.823 0.454 1.675 0.773 2.467 1.133 0.819 0.252 1.601 0.584 2.327 0.764 0.736 0.161 1.39 0.411 2.044 0.492 0.628 0.117 1.175 0.218 1.627 0.301 0.926 0.112 1.455 0.2 1.455 0.2zm-2.807-38.054s0.401-0.121 1.11-0.295c0.433-0.061 0.821-0.09 1.342-0.12 0.503-0.033 1.069-0.071 1.686-0.082 0.612-0.035 1.331 0.172 2.071 0.303 0.73 0.174 1.59 0.255 2.3 0.655 0.74 0.34 1.53 0.665 2.29 1.063 0.7 0.516 1.4 1.041 2.1 1.564 0.74 0.496 1.21 1.273 1.8 1.89 0.29 0.323 0.56 0.653 0.82 0.984 0.21 0.369 0.41 0.736 0.61 1.094 0.38 0.723 0.79 1.404 1.03 2.109 0.21 0.715 0.38 1.399 0.53 2.022 0.07 0.312 0.15 0.609 0.21 0.892 0.01 0.294 0.01 0.573 0.02 0.839 0.01 0.52 0 0.973-0.01 1.34-0.02 0.735-0.06 1.142-0.06 1.142s-0.17-0.398-0.44-1.072c-0.12-0.332-0.27-0.736-0.44-1.199-0.08-0.226-0.16-0.47-0.25-0.725-0.13-0.239-0.27-0.49-0.41-0.756-0.29-0.52-0.59-1.078-0.87-1.673-0.32-0.58-0.81-1.103-1.19-1.704-0.21-0.292-0.41-0.587-0.62-0.888-0.27-0.254-0.53-0.52-0.78-0.795-0.54-0.511-0.95-1.179-1.61-1.577-0.59-0.474-1.18-0.951-1.76-1.418-0.66-0.341-1.28-0.738-1.9-1.098-0.6-0.418-1.24-0.585-1.83-0.853-0.619-0.208-1.137-0.568-1.752-0.691-0.603-0.128-1.152-0.275-1.64-0.402-0.474-0.132-0.887-0.246-1.227-0.341-0.72-0.116-1.13-0.208-1.13-0.208zm2.456 33.26s-0.406 0.122-1.113 0.292c-0.428 0.061-0.821 0.09-1.341 0.123-0.501 0.03-1.069 0.068-1.684 0.079-0.612 0.033-1.328-0.172-2.068-0.306-0.735-0.171-1.592-0.254-2.296-0.654-0.74-0.341-1.533-0.663-2.297-1.063-0.693-0.514-1.396-1.039-2.098-1.562-0.736-0.496-1.206-1.273-1.803-1.891-0.287-0.322-0.559-0.652-0.818-0.983-0.205-0.369-0.407-0.734-0.606-1.092-0.385-0.725-0.786-1.403-1.028-2.108-0.215-0.716-0.386-1.399-0.535-2.023-0.073-0.31-0.143-0.609-0.211-0.892-0.007-0.294-0.013-0.573-0.018-0.837-0.015-0.52 0-0.973 0.005-1.339 0.022-0.736 0.061-1.142 0.061-1.142s0.176 0.395 0.441 1.069c0.123 0.334 0.27 0.738 0.442 1.202 0.079 0.226 0.164 0.47 0.252 0.724 0.132 0.238 0.27 0.49 0.413 0.754 0.285 0.522 0.584 1.078 0.865 1.673 0.325 0.578 0.814 1.1 1.192 1.704 0.204 0.29 0.413 0.587 0.623 0.888 0.268 0.255 0.527 0.518 0.777 0.793 0.543 0.511 0.951 1.177 1.607 1.574 0.589 0.477 1.177 0.953 1.757 1.421 0.66 0.341 1.277 0.736 1.901 1.098 0.608 0.418 1.24 0.585 1.833 0.853 0.617 0.208 1.135 0.566 1.747 0.691 0.604 0.128 1.155 0.275 1.64 0.402 0.474 0.132 0.889 0.248 1.23 0.343 0.717 0.116 1.13 0.209 1.13 0.209zm-2.099-28.468s0.286-0.117 0.789-0.281c0.327-0.062 0.595-0.108 0.968-0.152 0.36-0.046 0.768-0.101 1.209-0.127 0.435-0.049 0.973 0.079 1.519 0.162 0.547 0.108 1.187 0.154 1.697 0.435 0.55 0.24 1.14 0.461 1.69 0.753 0.51 0.374 1.03 0.752 1.55 1.134 0.53 0.364 0.87 0.935 1.31 1.39s0.76 0.988 1.02 1.535c0.27 0.534 0.54 1.039 0.7 1.557 0.15 0.53 0.25 1.035 0.34 1.494 0.11 0.448 0.14 0.876 0.1 1.265-0.01 0.38-0.05 0.707-0.07 0.975-0.06 0.531-0.12 0.823-0.12 0.823s-0.16-0.281-0.38-0.753c-0.12-0.237-0.25-0.516-0.38-0.832-0.12-0.325-0.3-0.666-0.54-1.017-0.22-0.358-0.46-0.736-0.66-1.144-0.25-0.391-0.61-0.74-0.88-1.153l-0.44-0.602c-0.19-0.169-0.37-0.352-0.55-0.538-0.38-0.349-0.66-0.808-1.11-1.076-0.41-0.332-0.81-0.661-1.2-0.989-0.46-0.235-0.88-0.527-1.3-0.786-0.416-0.303-0.836-0.435-1.238-0.637-0.421-0.16-0.761-0.437-1.198-0.547-0.428-0.112-0.817-0.244-1.161-0.358-0.332-0.101-0.677-0.239-0.857-0.307-0.516-0.128-0.808-0.224-0.808-0.224zm1.746 23.673s-0.288 0.117-0.791 0.281c-0.327 0.062-0.592 0.108-0.968 0.152-0.36 0.046-0.768 0.099-1.207 0.127-0.435 0.048-0.973-0.079-1.519-0.162-0.545-0.11-1.186-0.154-1.702-0.435-0.542-0.24-1.13-0.461-1.688-0.754-0.511-0.373-1.027-0.753-1.545-1.131-0.534-0.366-0.876-0.937-1.309-1.39-0.445-0.454-0.764-0.988-1.018-1.533-0.275-0.533-0.549-1.041-0.707-1.557-0.147-0.529-0.248-1.034-0.336-1.493-0.119-0.448-0.141-0.877-0.101-1.265 0.009-0.38 0.046-0.71 0.07-0.976 0.057-0.531 0.114-0.823 0.114-0.823s0.158 0.281 0.387 0.753c0.112 0.235 0.25 0.516 0.379 0.833 0.115 0.325 0.301 0.663 0.538 1.016 0.222 0.356 0.455 0.736 0.663 1.14 0.242 0.393 0.604 0.743 0.872 1.155l0.445 0.6c0.191 0.171 0.374 0.349 0.549 0.538 0.376 0.349 0.657 0.811 1.113 1.078 0.404 0.33 0.808 0.659 1.201 0.987 0.457 0.235 0.872 0.527 1.298 0.786 0.417 0.303 0.836 0.433 1.238 0.637 0.419 0.16 0.762 0.437 1.196 0.547 0.43 0.112 0.817 0.243 1.164 0.358 0.329 0.101 0.674 0.239 0.854 0.307 0.516 0.127 0.81 0.224 0.81 0.224z"/>
    </g>
   </g>
  </g>
 </g>
</svg>
