<?xml version="1.0" encoding="UTF-8"?>
<svg width="308px" height="40px" viewBox="0 0 308 40" version="1.1" xmlns="http://www.w3.org/2000/svg" xmlns:xlink="http://www.w3.org/1999/xlink">
    <title>Group 4</title>
    <g id="Web" stroke="none" stroke-width="1" fill="none" fill-rule="evenodd">
        <g id="Artboard" transform="translate(-158.000000, -133.000000)">
            <g id="Group-4" transform="translate(158.000000, 133.000000)">
                <g id="Group-2">
                    <g id="Group" transform="translate(271.999984, 0.000000)"></g>
                    <path d="M21.6767987,33.222398 L21.6767987,7.45599956 L17.606399,7.45599956 L17.606399,24.5439985 L2.20799987,7.03359958 L0.787199953,7.03359958 L0.787199953,32.799998 L4.85759971,32.799998 L4.85759971,15.6351991 L20.2943988,33.222398 L21.6767987,33.222398 Z M28.8639983,9.56799943 C30.3615982,9.56799943 31.5903981,8.4159995 31.5903981,6.91839959 C31.5903981,5.42079968 30.3615982,4.23039975 28.8639983,4.23039975 C27.3279984,4.23039975 26.0991984,5.42079968 26.0991984,6.91839959 C26.0991984,8.4159995 27.3279984,9.56799943 28.8639983,9.56799943 Z M30.8607982,32.799998 L30.8607982,13.9455992 L26.8287984,13.9455992 L26.8287984,32.799998 L30.8607982,32.799998 Z M44.8447973,33.222398 C47.7247972,33.222398 50.220797,32.2239981 52.3711969,30.1887982 L50.451197,27.4239984 C48.7615971,28.9215983 46.9183972,29.6511982 44.9599973,29.6511982 C41.7343975,29.6511982 39.3151977,27.7695983 38.8159977,24.6975985 L52.8703968,24.6975985 C53.0623968,23.8143986 53.1775968,22.9695986 53.1775968,22.1631987 C53.1775968,17.247999 49.4527971,13.5231992 44.4607973,13.5231992 C39.1231977,13.4079992 34.5919979,17.9775989 34.7071979,23.3919986 C34.7071979,28.9599983 39.0847977,33.222398 44.8447973,33.222398 Z M49.1455971,21.5487987 L38.8927977,21.5487987 C39.5071976,18.7455989 41.6575975,16.940799 44.3071974,16.940799 C46.9567972,16.940799 49.1071971,18.6687989 49.1455971,21.5487987 Z M65.0495961,33.222398 C69.6575958,33.222398 73.2287956,29.9583982 73.2287956,24.8895985 L73.2287956,13.9455992 L69.1967959,13.9455992 L69.1967959,25.1967985 C69.1967959,27.8079983 67.391996,29.4975982 65.0495961,29.4975982 C62.5919963,29.4975982 60.7871964,27.8079983 60.7871964,25.1967985 L60.7871964,13.9455992 L56.7935966,13.9455992 L56.7935966,24.8895985 C56.7935966,29.9583982 60.3263964,33.222398 65.0495961,33.222398 Z M85.6383949,33.222398 L91.5519945,20.6655988 L97.4655942,33.222398 L98.8479941,33.222398 L107.219194,13.9455992 L102.918394,13.9455992 L98.0415942,26.1183984 L92.2431945,13.5231992 L90.8607946,13.5231992 L85.1391949,26.2719984 L80.1855952,13.9455992 L75.8847955,13.9455992 L84.255995,33.222398 L85.6383949,33.222398 Z M118.246393,33.222398 C121.126393,33.222398 123.622393,32.2239981 125.772793,30.1887982 L123.852793,27.4239984 C122.163193,28.9215983 120.319993,29.6511982 118.361593,29.6511982 C115.135993,29.6511982 112.716793,27.7695983 112.217593,24.6975985 L126.271992,24.6975985 C126.463992,23.8143986 126.579192,22.9695986 126.579192,22.1631987 C126.579192,17.247999 122.854393,13.5231992 117.862393,13.5231992 C112.524793,13.4079992 107.993594,17.9775989 108.108794,23.3919986 C108.108794,28.9599983 112.486393,33.222398 118.246393,33.222398 Z M122.547193,21.5487987 L112.294393,21.5487987 C112.908793,18.7455989 115.059193,16.940799 117.708793,16.940799 C120.358393,16.940799 122.508793,18.6687989 122.547193,21.5487987 Z M142.367992,33.260798 C147.475191,33.260798 151.699191,30.7647982 154.003191,26.4639984 L148.972791,23.0463986 C147.321591,25.8111985 145.132791,27.1935984 142.367992,27.1935984 C140.332792,27.1935984 138.681592,26.5407984 137.375992,25.2735985 C136.108792,23.9679986 135.455992,22.2783987 135.455992,20.1663988 C135.455992,15.9039991 138.335992,13.0623992 142.367992,13.0623992 C145.132791,13.0623992 147.321591,14.4447991 148.972791,17.209599 L154.003191,13.7919992 C151.699191,9.49119943 147.475191,6.99519958 142.406392,6.99519958 C134.879992,6.84159959 128.582392,12.8703992 128.697592,20.1279988 C128.543992,27.4623984 134.918392,33.375998 142.367992,33.260798 Z M161.99679,33.260798 C164.26239,33.260798 166.10559,32.5695981 167.52639,31.2255981 L167.52639,32.799998 L173.55519,32.799998 L173.55519,21.6639987 C173.55519,16.134399 170.21439,13.1391992 164.83839,13.1391992 C161.34399,13.1391992 158.732791,14.3679991 156.159991,16.979199 L159.231991,21.1647987 C161.07519,19.5135988 162.30399,18.8223989 164.03199,18.8223989 C166.02879,18.8223989 166.95039,19.7823988 166.95039,21.2799987 L166.95039,21.5871987 L162.91839,21.5871987 C158.271991,21.5871987 155.391991,23.7375986 155.391991,27.3087984 C155.391991,30.5343982 157.811191,33.260798 161.99679,33.260798 Z M164.03199,28.5759983 C162.80319,28.5759983 162.07359,27.9999983 162.07359,27.0783984 C162.07359,26.1567984 162.72639,25.6191985 163.83999,25.6191985 L166.95039,25.6191985 L166.95039,25.7727985 C166.95039,27.5007984 165.72159,28.5759983 164.03199,28.5759983 Z M183.430389,33.260798 C185.772789,33.260798 187.654389,32.6847981 189.151989,31.5711981 C190.649589,30.4191982 191.379189,28.8447983 191.379189,26.8863984 C191.379189,23.8527986 189.612789,22.3935987 185.772789,20.8575988 L183.852789,20.0895988 C182.931189,19.7439988 182.547189,19.4751988 182.547189,19.0527989 C182.547189,18.5535989 183.007989,18.3231989 183.891189,18.3231989 C185.311989,18.3231989 186.655989,18.8607989 187.961589,19.9743988 L191.071989,15.942399 C189.267189,14.0607992 186.886389,13.1391992 183.852789,13.1391992 C179.359989,13.1391992 176.403189,15.3663991 176.403189,19.1679989 C176.403189,22.2015987 178.169589,23.8143986 181.971189,25.3503985 L184.121589,26.2335984 C184.927989,26.5791984 185.235189,26.7711984 185.235189,27.1935984 C185.235189,27.7695983 184.659189,28.0383983 183.545589,28.0383983 C181.663989,28.0383983 179.897589,27.2319984 178.246389,25.6575985 L175.17439,29.5743982 C176.979189,31.9167981 180.012789,33.260798 183.430389,33.260798 Z M196.876788,10.6815994 C199.142388,10.6815994 200.947188,8.95359947 200.947188,6.80319959 C200.947188,4.61439972 199.142388,2.88639983 196.876788,2.88639983 C194.611188,2.88639983 192.844789,4.61439972 192.844789,6.80319959 C192.844789,8.99199946 194.611188,10.6815994 196.876788,10.6815994 Z M200.217588,32.799998 L200.217588,13.5999992 L193.612788,13.5999992 L193.612788,32.799998 L200.217588,32.799998 Z M210.323187,32.799998 L210.323187,21.9327987 C210.323187,20.2431988 211.436787,19.0911989 213.087987,19.0911989 C214.739187,19.0911989 215.891187,20.2431988 215.891187,21.9327987 L215.891187,32.799998 L222.495987,32.799998 L222.495987,20.9727987 C222.495987,16.211199 219.615987,13.1391992 215.161587,13.1391992 C212.972787,13.1391992 211.167987,13.8303992 209.747187,15.1743991 L209.747187,13.5999992 L203.718388,13.5999992 L203.718388,32.799998 L210.323187,32.799998 Z M245.811185,23.1999986 C245.926385,17.7087989 241.049586,13.0239992 235.327986,13.1391992 C229.606386,13.0239992 224.767987,17.7087989 224.883187,23.1999986 C224.767987,28.6911983 229.606386,33.375998 235.327986,33.260798 C241.049586,33.375998 245.926385,28.6911983 245.811185,23.1999986 Z M235.366386,27.1935984 C233.177586,27.1935984 231.641586,25.6191985 231.641586,23.1999986 C231.641586,20.8575988 233.177586,19.2063989 235.366386,19.2063989 C237.478386,19.2063989 239.052786,20.8959988 239.052786,23.1999986 C239.052786,25.5039985 237.516786,27.1935984 235.366386,27.1935984 Z M254.879985,33.260798 C257.222385,33.260798 259.103985,32.6847981 260.601584,31.5711981 C262.099184,30.4191982 262.828784,28.8447983 262.828784,26.8863984 C262.828784,23.8527986 261.062384,22.3935987 257.222385,20.8575988 L255.302385,20.0895988 C254.380785,19.7439988 253.996785,19.4751988 253.996785,19.0527989 C253.996785,18.5535989 254.457585,18.3231989 255.340785,18.3231989 C256.761585,18.3231989 258.105585,18.8607989 259.411185,19.9743988 L262.521584,15.942399 C260.716784,14.0607992 258.335985,13.1391992 255.302385,13.1391992 C250.809585,13.1391992 247.852785,15.3663991 247.852785,19.1679989 C247.852785,22.2015987 249.619185,23.8143986 253.420785,25.3503985 L255.571185,26.2335984 C256.377585,26.5791984 256.684785,26.7711984 256.684785,27.1935984 C256.684785,27.7695983 256.108785,28.0383983 254.995185,28.0383983 C253.113585,28.0383983 251.347185,27.2319984 249.695985,25.6575985 L246.623985,29.5743982 C248.428785,31.9167981 251.462385,33.260798 254.879985,33.260798 Z" id="NieuweCasinos" fill="#470272" fill-rule="nonzero"></path>
                </g>
                <g id="Group-3" transform="translate(267.999984, 0.000000)">
                    <circle id="Oval" fill="#470272" cx="19.9999988" cy="19.9999988" r="19.9999988"></circle>
                    <g id="Group-5" transform="translate(8.799999, 7.200000)" fill="#FFFFFF">
                        <path d="M10.3676145,21.0404708 L11.1279791,22.457304 L11.8884041,21.0404708 L11.971063,21.0404708 C12.6415784,23.0399701 13.9397088,24.4408826 16.8046714,24.8239997 L16.8046714,24.8239997 L5.45128682,24.8239997 C8.31630977,24.4408826 9.61437978,23.0399701 10.2848952,21.0404708 L10.2848952,21.0404708 L10.3676145,21.0404708 Z M11.1300516,2.48689958e-14 L11.4112608,0.784609128 C13.9316303,7.2174583 20.1847592,9.18260221 21.8204132,13.2759886 C24.1856764,19.1951819 16.3527849,24.7599873 11.9308393,18.9375758 C12.6119288,19.3889251 13.1597853,19.7719824 13.7076417,19.7719824 C14.8187626,19.7719824 15.9298835,19.2467151 15.9298835,17.6708532 C15.9298835,16.0949314 14.8187626,15.5696042 13.7076417,15.5696042 C13.2850424,15.5696042 12.8623826,15.797643 12.3786955,16.1090567 C12.8464309,15.4150047 13.2492115,14.8611277 13.2492115,14.3073106 C13.2492115,13.2067391 12.7188777,12.1061076 11.1279972,12.1061076 C9.53705631,12.1061076 9.00678296,13.2067391 9.00678296,14.3073106 C9.00678296,14.8611876 9.40968436,15.4151244 9.8774802,16.1091764 C9.39367223,15.7977029 8.97095204,15.5696042 8.5483527,15.5696042 C7.43723183,15.5696042 6.32611097,16.0949314 6.32611097,17.6708532 C6.32611097,19.2467151 7.43723183,19.7719824 8.5483527,19.7719824 C9.09620918,19.7719824 9.64418651,19.3888653 10.325276,18.937516 C5.90333036,24.7599873 -1.92968201,19.1952417 0.435581258,13.2759886 C2.07431686,9.17506077 8.34786877,7.21051539 10.8589935,0.749176325 L10.8589935,0.749176325 L11.1300516,2.48689958e-14 Z" id="Combined-Shape"></path>
                    </g>
                </g>
            </g>
        </g>
    </g>
</svg>