<svg height="158" viewBox="0 0 626 158" width="626" xmlns="http://www.w3.org/2000/svg"><g fill="none" transform="translate(.37 -.99)"><path d="m172.95 2.99h14v14h-14z" fill="#f02b4c"/><g fill="#f9f9f8"><path d="m167.95 56.94h8v24.03h-8z"/><path d="m175.94 24.98h8v31.99h-8z"/><path d="m80.24 88.99h-7.89c0-18.13 5.19-31.59 15.44-40.09h-25v-7.91h34.3v10.89l-1.76 1.17c-10 6.69-15.09 18.78-15.09 35.94z"/><path d="m27.74 84.86h-7.86c0-12 3.28-21.6 9.55-28h-15.39v-7.87h26v9.56l-1.75 1.16c-7.01 4.64-10.55 13.11-10.55 25.15z"/><path d="m133.63 84.86h-7.86c0-12 3.28-21.6 9.55-28h-15.36v-7.87h25.95v9.56l-1.75 1.16c-6.97 4.64-10.53 13.11-10.53 25.15z"/><path d="m183.94 64.97h8v8h-8z"/><path d="m119.96 24.98v8h31.99v63.98h-31.99v8h39.99v-79.98z"/><path d="m39.99 32.98v-8h-39.99v79.98h39.99v-8h-31.99v-63.98z"/><path d="m51.99-11h8v47.98h-8z" transform="matrix(0 1 -1 0 68.98 -43)"/><path d="m47.99 24.99v80h64v-80zm56 72h-48v-64h48z"/><path d="m40.01 117.45v-4.5h-7.99v9.12l47.95 27.69v-9.19-.03z"/><path d="m79.97 131.34v9.2.03l39.97-23.08v-4.54h-8.12z"/><path d="m127.94 122.1h-.01l.01.01-47.97 27.69v9.19l55.96-32.27v-13.77h-7.99z"/><path d="m79.97 122.11 15.87-9.16h-15.85l-.02.01z"/><path d="m79.97 122.15-15.93-9.2h-15.85l31.78 18.36z"/><path d="m79.98.99v8h47.98v8h8v-16z"/></g><path d="m256.53 69.88h-5.06v19.11h-11.52v-48h16.51c10.06 0 15.12 5.2 15.12 14.28.05 8.92-5.83 14.61-15.05 14.61zm-5.06-18.89v8.88h4c2.64 0 4.16-1.8 4.16-4.51s-1.59-4.37-4.16-4.37z" fill="#f02b4c"/><path d="m277.48 88.99v-48h11.58v37.17h11v10.83z" fill="#f02b4c"/><path d="m334.47 77.58h-15.12l-4 11.44h-11.33l16.79-48h12.2l17.76 48h-12.28zm-11.79-9.71h8.46l-4.23-12.14z" fill="#f02b4c"/><path d="m345.45 40.99h12.83l6.66 13.11 6.69-13.11h12.21l-13.6 24.2v23.8h-11.47v-23.55z" fill="#f02b4c"/><path d="m425.35 83.68c-4.277146 4.1470635-10.044526 6.3963414-16 6.24-15.95 0-25.52-10.82-25.52-24.83s10-25 25.31-25c7.29 0 12.42 2.36 16.23 5.69l-6.86 8.74c-2.521615-2.265804-5.789962-3.5225866-9.18-3.53-8.53 0-13.32 6.25-13.32 14.08s5.34 14.08 13.39 14.08c3.390383-.0417701 6.648401-1.3222139 9.16-3.6z" fill="#f9f9f8"/><path d="m455.87 77.58h-15.12l-4 11.44h-11.33l16.79-48h12.2l17.76 48h-12.28zm-11.79-9.71h8.46l-4.23-12.14z" fill="#f9f9f8"/><path d="m488.63 58.3 6 2.35c6.25 2.57 9.92 6.73 9.92 13.88 0 9.71-6.86 15.39-16.51 15.39-13.73 0-16.23-8.94-15.81-15.95h11c-.14 3 1 6 4.85 6 2.64 0 4.58-1.46 4.58-4.23s-1.94-4-5.06-5.21c-2.43-1-4.86-1.87-7.49-3.19-4.86-2.49-7.42-7.21-7.42-13 0-8.39 6.1-14.22 15.46-14.22 11.31 0 15.4 6.45 14.92 15h-10.75c.07-3-1.45-5.07-4.16-5.07s-3.95 1.6-3.95 3.61 1.11 3.39 4.42 4.64z" fill="#f9f9f8"/><path d="m521.97 88.99h-11.59v-48h11.59z" fill="#f9f9f8"/><path d="m541.13 60.65v28.34h-11.17v-48h11.93l18 29v-29h11.16v48h-11.42z" fill="#f9f9f8"/><path d="m599.89 40.12c15.67 0 25.45 10.76 25.45 24.77s-9.71 25-25.11 25c-15.67 0-25.24-10.75-25.24-24.83s10.12-24.94 24.9-24.94zm.27 39c8.47 0 13-6.24 13-14.08s-4.81-14.05-13.07-14.05c-8.46 0-13 6.25-13 14.08s5.1 14.03 13.07 14.03z" fill="#f9f9f8"/></g></svg>