<svg width="20" height="17" viewBox="0 0 20 17" fill="none" xmlns="http://www.w3.org/2000/svg">
<path opacity="0.25" fill-rule="evenodd" clip-rule="evenodd" d="M4 2.01562C3.82084 2.01562 3.64718 2.03918 3.48196 2.08337L10 8.60141L16.518 2.08337C16.3528 2.03918 16.1792 2.01562 16 2.01562H4ZM2 4.01562C2 3.83647 2.02356 3.66281 2.06774 3.49758L9.29289 10.7227C9.48043 10.9103 9.73478 11.0156 10 11.0156C10.2652 11.0156 10.5196 10.9103 10.7071 10.7227L17.9323 3.49758C17.9764 3.66281 18 3.83647 18 4.01562V12.0156C18 12.1948 17.9764 12.3684 17.9323 12.5337L15.2071 9.80851C14.8166 9.41799 14.1834 9.41799 13.7929 9.80851C13.4024 10.199 13.4024 10.8322 13.7929 11.2227L16.518 13.9479C16.3528 13.9921 16.1792 14.0156 16 14.0156H4C3.82084 14.0156 3.64718 13.9921 3.48195 13.9479L6.2071 11.2227C6.59763 10.8322 6.59763 10.199 6.2071 9.80851C5.81658 9.41799 5.18341 9.41799 4.79289 9.80851L2.06774 12.5337C2.02356 12.3684 2 12.1948 2 12.0156V4.01562ZM4 0.015625C1.79086 0.015625 0 1.80649 0 4.01562V12.0156C0 14.2248 1.79086 16.0156 4 16.0156H16C18.2091 16.0156 20 14.2248 20 12.0156V4.01562C20 1.80649 18.2091 0.015625 16 0.015625H4Z" fill="white"/>
</svg>
