<svg width="20" height="21" viewBox="0 0 20 21" fill="none" xmlns="http://www.w3.org/2000/svg">
<g opacity="0.25">
<path fill-rule="evenodd" clip-rule="evenodd" d="M14.3056 14.3699C13.7558 14.9863 13.064 15.381 12.278 15.6044C10.8042 16.0223 9.31413 16.0367 7.84601 15.6012C6.51025 15.2049 5.52447 14.3891 5.13227 13.0208C4.85375 12.0505 5.48874 11.3259 6.46884 11.4396C6.89271 11.4885 7.17123 11.7415 7.36936 12.0889C7.4936 12.3075 7.59754 12.5373 7.7096 12.763C8.07338 13.4988 8.65965 13.9151 9.49278 14.0056C10.1749 14.0792 10.8342 14.0312 11.4652 13.7494C11.7096 13.6405 11.9256 13.49 12.1018 13.2898C12.5736 12.7526 12.4883 11.992 11.9093 11.5685C11.3499 11.1594 10.6783 11.0505 10.0246 10.9072C9.08921 10.7015 8.15133 10.5069 7.27192 10.1202C6.36328 9.7207 5.62435 9.14026 5.38643 8.12668C5.11034 6.95058 5.44164 5.95622 6.39657 5.19324C7.23863 4.52072 8.25202 4.30296 9.30114 4.21329C9.54393 4.19247 9.78997 4.21008 10.0344 4.21008C11.0031 4.18446 11.9467 4.31096 12.8212 4.7505C13.4903 5.08756 14.0449 5.54631 14.3673 6.23564C14.5248 6.57269 14.6003 6.93297 14.4988 7.29244C14.3754 7.72878 14.0742 8.03301 13.617 8.12428C13.1403 8.21955 12.6978 8.1451 12.3973 7.70956C12.2544 7.50221 12.1172 7.29004 11.9881 7.07388C11.5788 6.38695 10.9958 6.00426 10.1676 6.00746C9.78916 6.00906 9.4132 5.99705 9.04292 6.08512C8.71081 6.16438 8.4063 6.30129 8.15377 6.53186C7.70391 6.94338 7.72096 7.50941 8.20086 7.8857C8.51674 8.13389 8.89107 8.2716 9.27759 8.36927C10.1846 8.59744 11.0965 8.80961 12.0027 9.04259C12.4956 9.16988 12.9674 9.36043 13.4245 9.5862C15.5496 10.6366 15.3977 13.1433 14.3056 14.3699Z" fill="white"/>
<path fill-rule="evenodd" clip-rule="evenodd" d="M18.5707 12.114C18.5163 11.9899 18.4928 11.8754 18.5212 11.7377C18.7275 10.7329 18.7348 9.72494 18.5659 8.71136C17.8204 4.24634 13.5533 1.11594 9.01985 1.72041C8.75432 1.75563 8.53426 1.7148 8.29553 1.58911C6.37918 0.580334 4.03571 0.927 2.47746 2.43536C0.942751 3.92129 0.557044 6.24307 1.54039 8.13412C1.64433 8.33347 1.676 8.51281 1.62971 8.73458C1.53471 9.18773 1.52659 9.65208 1.50466 10.1357C1.5209 10.4055 1.52578 10.6977 1.55663 10.9875C2.06983 15.8264 6.56513 19.221 11.4599 18.466C11.6102 18.4428 11.7352 18.4676 11.8684 18.5341C12.7933 18.9936 13.7872 19.1057 14.7876 18.9488C18.0608 18.4356 19.8838 15.1187 18.5707 12.114Z" stroke="white" stroke-width="2"/>
</g>
</svg>
