<svg width="125" height="44" viewBox="0 0 125 44" fill="none" xmlns="http://www.w3.org/2000/svg">
<path d="M60.2145 14.4137V18.6719C60.2145 18.9685 60.2834 19.1856 60.4211 19.3233C60.5694 19.4504 60.813 19.514 61.152 19.514H62.1848V21.3889H60.7865C58.9116 21.3889 57.9742 20.4779 57.9742 18.656V14.4137H56.9255V12.5864H57.9742V10.4097H60.2145V12.5864H62.1848V14.4137H60.2145Z" fill="white"/>
<path d="M66.3147 13.9529C66.6007 13.4868 66.9714 13.1214 67.4269 12.8566C67.893 12.5917 68.4226 12.4593 69.0158 12.4593V14.795H68.4279C67.7288 14.795 67.1992 14.9592 66.839 15.2876C66.4895 15.6159 66.3147 16.1879 66.3147 17.0036V21.3889H64.0903V12.5864H66.3147V13.9529Z" fill="white"/>
<path d="M78.824 12.5864V21.3889H76.5836V20.2767C76.2976 20.658 75.9216 20.9599 75.4555 21.1823C75 21.3942 74.5022 21.5001 73.962 21.5001C73.2734 21.5001 72.6644 21.3571 72.1347 21.0711C71.6051 20.7745 71.1867 20.3455 70.8795 19.7841C70.5829 19.2121 70.4346 18.5342 70.4346 17.7503V12.5864H72.6591V17.4326C72.6591 18.1317 72.8339 18.6719 73.1834 19.0532C73.533 19.424 74.0096 19.6093 74.6134 19.6093C75.2278 19.6093 75.7097 19.424 76.0593 19.0532C76.4089 18.6719 76.5836 18.1317 76.5836 17.4326V12.5864H78.824Z" fill="white"/>
<path d="M88.896 16.797C88.896 17.1148 88.8748 17.4008 88.8324 17.655H82.3974C82.4504 18.2906 82.6728 18.7884 83.0647 19.1486C83.4567 19.5087 83.9386 19.6888 84.5106 19.6888C85.3368 19.6888 85.9247 19.3339 86.2743 18.6242H88.6735C88.4193 19.4716 87.932 20.1707 87.2117 20.7216C86.4914 21.2618 85.607 21.5319 84.5583 21.5319C83.7109 21.5319 82.9482 21.3465 82.2703 20.9758C81.603 20.5944 81.0786 20.0595 80.6973 19.371C80.3266 18.6825 80.1412 17.888 80.1412 16.9877C80.1412 16.0767 80.3266 15.277 80.6973 14.5884C81.068 13.8999 81.5871 13.3703 82.2544 12.9996C82.9217 12.6288 83.6897 12.4434 84.5583 12.4434C85.3951 12.4434 86.1419 12.6235 86.7986 12.9837C87.466 13.3438 87.9797 13.8576 88.3398 14.5249C88.7106 15.1816 88.896 15.939 88.896 16.797ZM86.5921 16.1614C86.5815 15.5894 86.3749 15.134 85.9724 14.795C85.5699 14.4454 85.0773 14.2707 84.4947 14.2707C83.9439 14.2707 83.4778 14.4401 83.0965 14.7791C82.7258 15.1075 82.498 15.5683 82.4133 16.1614H86.5921Z" fill="white"/>
<path d="M59.8491 27.302C60.1351 26.8995 60.527 26.5658 61.0249 26.301C61.5333 26.0256 62.1106 25.8879 62.7568 25.8879C63.5088 25.8879 64.1868 26.0733 64.7905 26.444C65.4049 26.8147 65.8869 27.3444 66.2364 28.0329C66.5966 28.7108 66.7766 29.5 66.7766 30.4003C66.7766 31.3007 66.5966 32.1004 66.2364 32.7996C65.8869 33.4881 65.4049 34.023 64.7905 34.4043C64.1868 34.7857 63.5088 34.9763 62.7568 34.9763C62.1106 34.9763 61.5386 34.8439 61.0408 34.5791C60.5535 34.3143 60.1563 33.9806 59.8491 33.5781V39.028H57.6246V26.0309H59.8491V27.302ZM64.5045 30.4003C64.5045 29.8707 64.3933 29.4152 64.1709 29.0339C63.959 28.642 63.673 28.3454 63.3129 28.1441C62.9633 27.9429 62.582 27.8422 62.1689 27.8422C61.7664 27.8422 61.385 27.9481 61.0249 28.16C60.6753 28.3613 60.3893 28.6579 60.1669 29.0498C59.955 29.4417 59.8491 29.9025 59.8491 30.4321C59.8491 30.9617 59.955 31.4225 60.1669 31.8144C60.3893 32.2064 60.6753 32.5083 61.0249 32.7201C61.385 32.9214 61.7664 33.022 62.1689 33.022C62.582 33.022 62.9633 32.9161 63.3129 32.7042C63.673 32.4924 63.959 32.1905 64.1709 31.7986C64.3933 31.4066 64.5045 30.9406 64.5045 30.4003Z" fill="white"/>
<path d="M67.8211 30.4003C67.8211 29.5106 67.9959 28.7214 68.3454 28.0329C68.7056 27.3444 69.1875 26.8147 69.7913 26.444C70.4057 26.0733 71.0889 25.8879 71.841 25.8879C72.4977 25.8879 73.0697 26.0203 73.557 26.2851C74.0548 26.5499 74.4521 26.8836 74.7486 27.2861V26.0309H76.989V34.8333H74.7486V33.5463C74.4626 33.9594 74.0654 34.3037 73.557 34.5791C73.0591 34.8439 72.4818 34.9763 71.8251 34.9763C71.0836 34.9763 70.4057 34.7857 69.7913 34.4043C69.1875 34.023 68.7056 33.4881 68.3454 32.7996C67.9959 32.1004 67.8211 31.3007 67.8211 30.4003ZM74.7486 30.4321C74.7486 29.8919 74.6427 29.4311 74.4309 29.0498C74.219 28.6579 73.933 28.3613 73.5729 28.16C73.2127 27.9481 72.8261 27.8422 72.413 27.8422C71.9999 27.8422 71.6185 27.9429 71.269 28.1441C70.9194 28.3454 70.6334 28.642 70.411 29.0339C70.1991 29.4152 70.0932 29.8707 70.0932 30.4003C70.0932 30.93 70.1991 31.396 70.411 31.7986C70.6334 32.1905 70.9194 32.4924 71.269 32.7042C71.6291 32.9161 72.0105 33.022 72.413 33.022C72.8261 33.022 73.2127 32.9214 73.5729 32.7201C73.933 32.5083 74.219 32.2117 74.4309 31.8303C74.6427 31.4384 74.7486 30.9723 74.7486 30.4321Z" fill="white"/>
<path d="M81.0804 27.3973C81.3664 26.9313 81.7372 26.5658 82.1926 26.301C82.6587 26.0362 83.1883 25.9038 83.7815 25.9038V28.2394H83.1936C82.4945 28.2394 81.9649 28.4036 81.6048 28.732C81.2552 29.0604 81.0804 29.6324 81.0804 30.448V34.8333H78.856V26.0309H81.0804V27.3973Z" fill="white"/>
<path d="M88.1753 27.8581V32.1163C88.1753 32.4129 88.2441 32.6301 88.3818 32.7678C88.5301 32.8949 88.7737 32.9584 89.1127 32.9584H90.1455V34.8333H88.7472C86.8724 34.8333 85.9349 33.9224 85.9349 32.1004V27.8581H84.8863V26.0309H85.9349V23.8541H88.1753V26.0309H90.1455V27.8581H88.1753Z" fill="white"/>
<path d="M96.6233 25.9038C97.672 25.9038 98.5194 26.2374 99.1655 26.9048C99.8117 27.5615 100.135 28.4831 100.135 29.6694V34.8333H97.9103V29.9713C97.9103 29.2722 97.7355 28.7373 97.386 28.3666C97.0364 27.9852 96.5597 27.7946 95.956 27.7946C95.3416 27.7946 94.8543 27.9852 94.4942 28.3666C94.1446 28.7373 93.9699 29.2722 93.9699 29.9713V34.8333H91.7454V26.0309H93.9699V27.1272C94.2664 26.7459 94.6425 26.4493 95.098 26.2374C95.564 26.015 96.0725 25.9038 96.6233 25.9038Z" fill="white"/>
<path d="M110.127 30.2414C110.127 30.5592 110.106 30.8452 110.064 31.0994H103.629C103.682 31.735 103.904 32.2328 104.296 32.593C104.688 32.9531 105.17 33.1332 105.742 33.1332C106.568 33.1332 107.156 32.7784 107.506 32.0687H109.905C109.651 32.9161 109.163 33.6152 108.443 34.166C107.723 34.7062 106.838 34.9763 105.79 34.9763C104.942 34.9763 104.18 34.791 103.502 34.4202C102.834 34.0389 102.31 33.504 101.929 32.8154C101.558 32.1269 101.373 31.3325 101.373 30.4321C101.373 29.5211 101.558 28.7214 101.929 28.0329C102.299 27.3444 102.818 26.8147 103.486 26.444C104.153 26.0733 104.921 25.8879 105.79 25.8879C106.626 25.8879 107.373 26.068 108.03 26.4281C108.697 26.7883 109.211 27.302 109.571 27.9693C109.942 28.6261 110.127 29.3834 110.127 30.2414ZM107.823 29.6059C107.813 29.0339 107.606 28.5784 107.204 28.2394C106.801 27.8899 106.309 27.7151 105.726 27.7151C105.175 27.7151 104.709 27.8846 104.328 28.2236C103.957 28.5519 103.729 29.0127 103.645 29.6059H107.823Z" fill="white"/>
<path d="M113.67 27.3973C113.956 26.9313 114.327 26.5658 114.782 26.301C115.248 26.0362 115.778 25.9038 116.371 25.9038V28.2394H115.783C115.084 28.2394 114.554 28.4036 114.194 28.732C113.845 29.0604 113.67 29.6324 113.67 30.448V34.8333H111.445V26.0309H113.67V27.3973Z" fill="white"/>
<path d="M120.932 34.9763C120.212 34.9763 119.566 34.8492 118.994 34.595C118.422 34.3302 117.966 33.9753 117.627 33.5304C117.299 33.0856 117.119 32.593 117.087 32.0528H119.327C119.37 32.3917 119.534 32.6724 119.82 32.8949C120.116 33.1173 120.482 33.2286 120.916 33.2286C121.34 33.2286 121.668 33.1438 121.901 32.9743C122.145 32.8048 122.267 32.5877 122.267 32.3229C122.267 32.0369 122.118 31.825 121.822 31.6873C121.536 31.539 121.075 31.3801 120.44 31.2107C119.783 31.0518 119.243 30.8876 118.819 30.7181C118.406 30.5486 118.046 30.2891 117.738 29.9396C117.442 29.59 117.294 29.1186 117.294 28.5254C117.294 28.0382 117.431 27.5933 117.707 27.1908C117.993 26.7883 118.395 26.4705 118.914 26.2374C119.444 26.0044 120.064 25.8879 120.773 25.8879C121.822 25.8879 122.659 26.1527 123.284 26.6823C123.909 27.2014 124.253 27.9058 124.316 28.7956H122.187C122.156 28.446 122.007 28.1706 121.742 27.9693C121.488 27.7575 121.144 27.6516 120.71 27.6516C120.307 27.6516 119.995 27.7257 119.772 27.874C119.56 28.0223 119.454 28.2288 119.454 28.4937C119.454 28.7903 119.603 29.018 119.899 29.1769C120.196 29.3252 120.657 29.4788 121.282 29.6377C121.917 29.7966 122.442 29.9607 122.855 30.1302C123.268 30.2997 123.623 30.5645 123.919 30.9247C124.226 31.2742 124.385 31.7403 124.396 32.3229C124.396 32.8313 124.253 33.2868 123.967 33.6893C123.691 34.0918 123.289 34.4096 122.759 34.6427C122.24 34.8651 121.631 34.9763 120.932 34.9763Z" fill="white"/>
<path fill-rule="evenodd" clip-rule="evenodd" d="M44 11.6111C44 5.19444 38.8055 0 32.3889 5.58521e-07H0V44H44V11.6111ZM20.2715 15.9503L28.4998 7.72198C30.6477 5.5741 34.1301 5.5741 36.278 7.72198C38.4258 9.86987 38.4259 13.3523 36.278 15.5002L28.0497 23.7285L20.2715 15.9503ZM15.9503 20.2715L6.11111 30.1107V37.8889H33.5677L15.9503 20.2715ZM6.11111 21.4683L21.4683 6.11111H6.11111V21.4683ZM32.3709 28.0497L37.8889 33.5676V22.5317L32.3709 28.0497Z" fill="white"/>
</svg>
