<svg width="32" height="32" viewBox="0 0 32 32" fill="none" xmlns="http://www.w3.org/2000/svg">
<path fill-rule="evenodd" clip-rule="evenodd" d="M8 0C3.58172 0 0 3.58172 0 8V24C0 28.4183 3.58172 32 8 32H24C28.4183 32 32 28.4183 32 24V8C32 3.58172 28.4183 0 24 0H8ZM16.7259 15.615V23.2317H13.5745V15.6153H12V12.9905H13.5745V11.4146C13.5745 9.2733 14.4635 8 16.9894 8H19.0922V10.6251H17.7778C16.7945 10.6251 16.7295 10.9919 16.7295 11.6765L16.7259 12.9902H19.1071L18.8285 15.615H16.7259Z" fill="white"/>
</svg>
