<svg width="32" height="32" viewBox="0 0 32 32" fill="none" xmlns="http://www.w3.org/2000/svg">
<path fill-rule="evenodd" clip-rule="evenodd" d="M8 0C3.58172 0 0 3.58172 0 8V24C0 28.4183 3.58172 32 8 32H24C28.4183 32 32 28.4183 32 24V8C32 3.58172 28.4183 0 24 0H8ZM13.9648 18.4253L13.9641 18.4268L13.7266 21.9945C14.0671 21.9945 14.2227 21.843 14.4107 21.6599L14.4266 21.6445L16.1073 20.0102L19.6061 22.5952C20.25 22.9504 20.7146 22.7665 20.875 21.9974L23.1716 11.1751C23.4067 10.2324 22.8122 9.80485 22.1963 10.0845L8.71083 15.2844C7.79032 15.6536 7.79569 16.1672 8.54304 16.396L12.0037 17.4762L20.0156 12.4216C20.3938 12.1922 20.7409 12.3155 20.456 12.5684L13.9648 18.4253Z" fill="white"/>
</svg>
