<svg width="32" height="32" viewBox="0 0 32 32" fill="none" xmlns="http://www.w3.org/2000/svg">
<path fill-rule="evenodd" clip-rule="evenodd" d="M8 0C3.58172 0 0 3.58172 0 8V24C0 28.4183 3.58172 32 8 32H24C28.4183 32 32 28.4183 32 24V8C32 3.58172 28.4183 0 24 0H8ZM15.6101 13.4638L15.5807 12.9794C15.4926 11.7238 16.2662 10.577 17.4903 10.1321C17.9407 9.97392 18.7046 9.95415 19.204 10.0926C19.3999 10.1519 19.772 10.3496 20.0364 10.5276L20.5162 10.8538L21.045 10.6857C21.3388 10.5968 21.7305 10.4485 21.9068 10.3496C22.0733 10.2606 22.2202 10.2112 22.2202 10.2409C22.2202 10.4089 21.8578 10.9823 21.5543 11.2987C21.143 11.7436 21.2605 11.7831 22.0929 11.4865C22.5923 11.3185 22.6021 11.3185 22.5041 11.5063C22.4454 11.6052 22.1418 11.9512 21.8187 12.2676C21.2703 12.8113 21.2409 12.8706 21.2409 13.3254C21.2409 14.0273 20.9079 15.4905 20.575 16.2913C19.958 17.794 18.636 19.3462 17.314 20.1272C15.4534 21.2246 12.9758 21.5014 10.89 20.8588C10.1947 20.6413 9 20.0877 9 19.9888C9 19.9591 9.36233 19.9196 9.803 19.9097C10.7235 19.8899 11.644 19.6329 12.4274 19.1781L12.9563 18.8618L12.3491 18.6541C11.4873 18.3576 10.7137 17.6754 10.5179 17.0328C10.4591 16.8252 10.4787 16.8153 11.0271 16.8153L11.5951 16.8054L11.1152 16.578C10.5472 16.2913 10.0282 15.8069 9.77362 15.3126C9.58756 14.9566 9.35254 14.057 9.42109 13.9878C9.44067 13.9581 9.64632 14.0174 9.88134 14.0965C10.557 14.3437 10.6452 14.2844 10.2535 13.8691C9.51901 13.1178 9.29378 12.0006 9.64632 10.9428L9.81279 10.4682L10.4591 11.1109C11.7811 12.406 13.3382 13.1771 15.1204 13.4045L15.6101 13.4638Z" fill="white"/>
</svg>
