<svg width="32" height="32" viewBox="0 0 32 32" fill="none" xmlns="http://www.w3.org/2000/svg">
<path fill-rule="evenodd" clip-rule="evenodd" d="M8 0.000488281C3.58172 0.000488281 0 3.58221 0 8.00049V24.0005C0 28.4188 3.58172 32.0005 8 32.0005H24C28.4183 32.0005 32 28.4188 32 24.0005V8.00049C32 3.58221 28.4183 0.000488281 24 0.000488281H8ZM12.8826 10.9793C12.8826 9.21425 15.7852 6.82035 16.0136 6.93429C16.1135 6.95094 16.076 7.21884 16.0152 7.65341C15.9212 8.32522 15.7714 9.39534 15.9873 10.5512C16.1064 11.1872 16.7602 12.5312 17.5061 14.0645C18.6807 16.479 20.0837 19.363 19.9862 20.6907C19.8618 22.0564 16.7021 25.2522 16.3677 25.0398C16.2306 25.003 16.3352 24.6685 16.4914 24.1688C16.7477 23.3486 17.1432 22.0832 16.8383 20.9578C16.6194 20.1481 15.9853 18.8448 15.2871 17.41L15.2871 17.41C14.1664 15.1066 12.8806 12.464 12.8826 10.9793ZM7.87866 12.0576C7.87866 10.6739 10.154 8.79314 10.3334 8.88267C10.4125 8.89584 10.383 9.10679 10.3352 9.4491C10.2615 9.97662 10.1442 10.8161 10.3134 11.7244C10.4068 12.2224 10.9185 13.2754 11.5025 14.4773L11.5025 14.4774C12.4237 16.3731 13.5249 18.6392 13.4488 19.6822C13.3522 20.7526 10.8731 23.2632 10.6125 23.0958C10.5042 23.0664 10.5865 22.8026 10.7092 22.4089C10.91 21.7648 11.2192 20.7731 10.9803 19.8909C10.8085 19.2546 10.3111 18.2312 9.7635 17.1047C8.88468 15.2966 7.87672 13.2229 7.87866 12.0576ZM21.8803 8.88267C21.7025 8.79314 19.4255 10.6739 19.4255 12.0576C19.4238 13.223 20.432 15.2971 21.3109 17.1054C21.8584 18.2316 22.3557 19.2548 22.5275 19.8909C22.7663 20.7732 22.457 21.7651 22.2562 22.4092C22.1335 22.8028 22.0513 23.0664 22.1594 23.0958C22.4216 23.2632 24.9011 20.7526 24.996 19.6822C25.072 18.639 23.9706 16.3725 23.0493 14.4767C22.4653 13.275 21.9538 12.2223 21.8603 11.7244C21.6913 10.8163 21.8085 9.97702 21.8821 9.44948C21.9299 9.10695 21.9594 8.89585 21.8803 8.88267Z" fill="white"/>
</svg>
