<svg width="32" height="32" viewBox="0 0 32 32" fill="none" xmlns="http://www.w3.org/2000/svg">
<path fill-rule="evenodd" clip-rule="evenodd" d="M8 0C3.58172 0 0 3.58172 0 8V24C0 28.4183 3.58172 32 8 32H24C28.4183 32 32 28.4183 32 24V8C32 3.58172 28.4183 0 24 0H8ZM22.3009 11.3204C22.9435 11.4968 23.4495 12.0163 23.6213 12.676C23.9333 13.8718 23.9333 16.3667 23.9333 16.3667C23.9333 16.3667 23.9333 18.8615 23.6213 20.0573C23.4495 20.717 22.9435 21.2366 22.3009 21.413C21.1365 21.7333 16.4667 21.7333 16.4667 21.7333C16.4667 21.7333 11.7969 21.7333 10.6323 21.413C9.98976 21.2366 9.48372 20.717 9.31199 20.0573C9 18.8615 9 16.3667 9 16.3667C9 16.3667 9 13.8718 9.31199 12.676C9.48372 12.0163 9.98976 11.4968 10.6323 11.3204C11.7969 11 16.4667 11 16.4667 11C16.4667 11 21.1365 11 22.3009 11.3204Z" fill="white"/>
</svg>
